<?xml version="1.0" encoding="utf-8"?>
<!-- Uploaded to: SVG Repo, www.svgrepo.com, Generator: SVG Repo Mixer Tools -->
<svg fill="#000000" version="1.1" id="Layer_1" xmlns="http://www.w3.org/2000/svg" xmlns:xlink="http://www.w3.org/1999/xlink" 
	 width="800px" height="800px" viewBox="0 0 256 253" enable-background="new 0 0 256 253" xml:space="preserve">
<path d="M131.898,155.363h12.084v8.186h-12.084v28.065h-8.186v-28.065h-11.694v-8.186h11.694v-11.304h8.186V155.363z M2,61h252v8
	c-0.301,14.158-9.11,25.609-22,29.554V233h22v18H2v-18h22V98.576C11.625,94.302,2,82.678,2,69V61z M42,98.594V233h172V98.5
	c-13.228-3.738-22.954-15.728-22.954-30.154c0,10.448-9.63,31.447-31.363,31.447c-24.053,0-31.464-20.395-31.464-31.447
	c0,11.855-9.513,31.47-31.202,31.47c-24.971,0-31.727-24.992-31.727-31.47C65.29,82.895,55.402,94.966,42,98.594z M222.832,22H223V2
	H34v20L2,54h252L222.832,22z M182,209v18H74v-18h7v-52c0-25.916,21.084-47,47-47s47,21.084,47,47v52H182z M91,209h74v-52
	c0-20.402-16.598-37-37-37s-37,16.598-37,37V209z"/>
</svg>