<?xml version="1.0" standalone="no"?>
<!DOCTYPE svg PUBLIC "-//W3C//DTD SVG 20010904//EN"
 "http://www.w3.org/TR/2001/REC-SVG-20010904/DTD/svg10.dtd">
<svg version="1.0" xmlns="http://www.w3.org/2000/svg"
 width="700.000000pt" height="189.000000pt" viewBox="0 0 700.000000 189.000000"
 preserveAspectRatio="xMidYMid meet">

<g transform="translate(0.000000,189.000000) scale(0.100000,-0.100000)"
fill="#000000" stroke="none">
<path d="M660 1444 c-53 -45 -113 -187 -164 -391 l-22 -85 -51 -20 c-71 -26
-113 -75 -113 -132 0 -37 5 -48 40 -80 22 -20 44 -34 49 -31 20 12 20 -17 1
-110 -42 -206 -37 -280 21 -310 36 -19 63 -19 98 0 36 18 40 28 62 145 l18 95
-2 -64 c-3 -87 18 -93 27 -9 7 62 43 249 49 255 2 2 32 4 67 5 63 3 64 3 72
-27 82 -321 131 -425 200 -425 68 0 73 80 23 327 l-27 132 26 31 c20 25 26 42
26 82 0 44 -4 54 -34 84 -19 19 -43 34 -54 34 -22 0 -20 -10 -40 230 -8 87 -9
95 -11 45 -3 -77 -15 -49 -25 55 -7 82 -23 115 -64 133 -15 6 -40 22 -55 34
-38 30 -78 29 -117 -3z m95 -431 l7 -73 -46 0 c-25 0 -46 3 -46 6 0 12 52 199
58 209 7 12 17 -39 27 -142z m-121 -342 c-4 -17 -9 -30 -11 -27 -3 2 -2 19 2
36 9 41 17 33 9 -9z m-17 -73 c-3 -7 -5 -2 -5 12 0 14 2 19 5 13 2 -7 2 -19 0
-25z m-10 -55 c-3 -10 -5 -4 -5 12 0 17 2 24 5 18 2 -7 2 -21 0 -30z"/>
<path d="M1735 1433 c-93 -8 -287 -15 -430 -15 -185 -1 -245 -4 -210 -11 125
-22 129 -26 19 -21 l-111 5 -26 -31 c-39 -46 -34 -70 28 -143 65 -77 93 -87
251 -87 l107 0 -9 -222 c-13 -323 -10 -480 11 -534 19 -50 47 -74 88 -74 41 0
63 15 77 52 l13 33 6 -30 7 -30 14 25 c11 20 14 97 15 410 l0 384 50 8 c28 4
88 15 133 24 77 14 85 14 102 -1 33 -30 109 -45 223 -45 l109 0 -8 -187 c-11
-234 -11 -496 -1 -545 11 -54 56 -98 101 -98 42 0 76 28 76 62 0 18 2 20 9 9
5 -8 7 -20 4 -28 -3 -7 0 -13 6 -13 27 0 32 65 34 434 l2 380 125 22 c74 13
148 33 183 49 31 14 146 48 255 75 343 84 322 78 281 79 -78 2 -333 -57 -468
-108 l-51 -19 0 23 c0 12 9 34 20 48 21 27 27 72 10 82 -5 3 -10 17 -10 31 0
24 -2 25 -42 20 -112 -15 -383 -29 -571 -29 -187 -1 -210 0 -218 16 -6 9 -15
16 -22 16 -7 -1 -88 -8 -182 -16z m300 -43 c25 -6 20 -8 -27 -9 -31 0 -60 4
-63 9 -7 12 45 12 90 0z m-865 -212 c17 -5 9 -6 -25 -3 -27 3 -54 10 -59 15
-11 11 37 4 84 -12z m810 7 l55 -15 -50 5 c-27 3 -54 10 -59 15 -12 12 -13 12
54 -5z"/>
<path d="M5005 1433 c-88 -7 -279 -14 -425 -15 -146 -1 -254 -5 -240 -9 14 -4
43 -8 65 -9 22 -1 51 -6 65 -11 15 -5 -18 -6 -87 -3 -104 5 -113 4 -132 -15
-12 -12 -27 -21 -35 -21 -22 0 -24 -19 -10 -85 23 -104 14 -104 -12 0 -27 108
-46 135 -94 135 -19 0 -37 -11 -59 -35 -33 -38 -39 -73 -21 -120 14 -37 81
-396 78 -414 -2 -9 -23 25 -46 74 -65 134 -204 364 -256 422 -57 63 -108 90
-143 74 -13 -6 -26 -19 -30 -28 -3 -10 -15 -25 -26 -34 -16 -13 -21 -28 -20
-65 1 -42 0 -45 -7 -19 -11 41 -12 21 -10 -140 l1 -140 -25 35 c-14 19 -32 45
-40 57 -40 56 -203 28 -474 -79 -84 -34 -154 -59 -156 -57 -2 2 -7 20 -11 40
-6 34 -5 36 32 52 81 35 176 66 383 127 118 34 221 68 229 75 10 10 12 26 7
59 -6 38 -13 49 -38 62 -35 18 -78 20 -128 4 -19 -6 -123 -31 -230 -56 -190
-43 -356 -92 -413 -121 -58 -29 -84 -114 -52 -171 14 -26 66 -498 67 -598 0
-42 29 -104 48 -104 5 0 10 -7 10 -15 0 -8 11 -22 25 -31 32 -21 95 -8 209 42
157 70 342 130 509 167 l68 15 6 -31 c7 -32 7 -32 14 -7 5 16 7 0 8 -46 1 -77
12 -96 64 -109 21 -6 37 -1 70 21 72 48 69 23 61 394 -6 294 -5 333 8 320 8
-8 83 -136 166 -285 103 -186 152 -284 157 -315 9 -58 33 -108 57 -121 32 -17
84 -2 114 34 l27 32 -6 195 c-6 201 -24 375 -56 563 -10 59 -15 107 -12 107 3
0 13 -13 23 -29 29 -52 68 -64 217 -69 l134 -4 -7 -122 c-16 -300 -19 -531 -6
-590 15 -75 52 -116 104 -116 38 0 75 35 77 74 1 11 5 3 8 -19 l6 -40 18 32
c15 29 17 71 17 415 l0 383 117 18 c121 19 172 35 199 62 9 8 30 15 47 15 38
0 173 64 181 86 19 50 -75 120 -151 111 -24 -2 -43 -1 -43 4 0 5 -8 8 -17 8
-10 -1 -90 -8 -178 -16z m-595 -248 l55 -15 -50 5 c-27 3 -54 10 -59 15 -12
12 -13 12 54 -5z m-183 -57 c-3 -7 -5 -2 -5 12 0 14 2 19 5 13 2 -7 2 -19 0
-25z m10 -60 c-3 -7 -5 -2 -5 12 0 14 2 19 5 13 2 -7 2 -19 0 -25z m-649 -160
l-2 -123 -5 115 c-4 63 -5 118 -3 123 9 22 12 -5 10 -115z m659 90 c-3 -7 -5
-2 -5 12 0 14 2 19 5 13 2 -7 2 -19 0 -25z m10 -60 c-3 -8 -6 -5 -6 6 -1 11 2
17 5 13 3 -3 4 -12 1 -19z m-695 -91 l3 -59 -30 5 c-38 6 -164 -33 -428 -135
-115 -44 -210 -78 -212 -76 -2 2 -5 26 -6 53 l-4 50 60 32 c113 61 322 127
482 153 75 12 122 38 124 68 3 23 8 -21 11 -91z m-457 -28 c-56 -26 -160 -67
-163 -65 -13 13 20 35 81 53 75 22 118 29 82 12z m674 -346 c-1 -60 -3 -70 -9
-45 -7 30 -2 122 6 122 2 0 4 -35 3 -77z m-849 -183 c-19 -11 -44 -19 -55 -19
-13 0 -7 7 20 20 52 24 80 24 35 -1z"/>
<path d="M5570 1401 c-53 -19 -102 -63 -115 -103 -4 -10 -10 -18 -15 -18 -5 0
-2 16 6 35 8 19 12 35 9 35 -3 0 -35 -60 -70 -132 -64 -130 -65 -132 -65 -88
0 55 -38 95 -82 86 -43 -9 -106 -53 -125 -88 -34 -62 -26 -547 10 -695 16 -64
78 -113 143 -113 35 0 47 5 60 25 26 39 48 40 98 1 56 -42 109 -54 203 -46 56
6 82 13 113 35 65 45 118 121 146 210 l13 40 2 -55 c1 -30 5 -68 9 -85 l8 -30
2 30 c2 17 6 -5 10 -48 7 -91 22 -112 78 -112 28 0 49 9 81 34 l43 34 -2 191
c-4 385 -1 482 14 466 7 -8 79 -133 159 -276 114 -206 148 -275 158 -324 20
-105 69 -141 139 -105 43 22 59 64 55 143 -3 37 -7 132 -9 212 -6 152 -32 378
-67 565 -21 114 -31 137 -50 118 -8 -8 -6 -32 5 -89 9 -42 14 -79 12 -81 -2
-2 -17 45 -33 104 -26 94 -33 109 -55 117 -39 14 -73 0 -102 -42 l-26 -39 24
-104 c25 -104 77 -391 72 -397 -2 -1 -28 48 -59 110 -72 144 -176 319 -232
390 -27 35 -60 64 -89 78 -44 21 -48 21 -72 5 -14 -9 -28 -23 -31 -32 -4 -9
-15 -25 -25 -35 -11 -11 -19 -34 -19 -60 l-2 -43 -7 40 c-6 34 -7 29 -9 -35
l-1 -75 -35 85 c-19 47 -43 90 -52 95 -10 6 -32 25 -50 44 -40 43 -95 50 -173
22z m94 -228 c48 -126 74 -434 47 -555 -18 -79 -51 -157 -74 -173 -43 -30
-113 -11 -152 41 -21 28 -18 42 9 37 13 -3 27 0 30 5 3 6 0 53 -9 104 -19 118
-19 272 0 363 14 67 54 189 61 183 1 -2 -7 -35 -19 -73 -18 -62 -21 -95 -21
-275 1 -113 5 -218 10 -233 6 -19 9 45 9 200 0 208 2 236 24 318 25 97 37 125
50 125 5 0 21 -30 35 -67z m893 -45 c-3 -8 -6 -5 -6 6 -1 11 2 17 5 13 3 -3 4
-12 1 -19z m10 -70 c-3 -7 -5 -2 -5 12 0 14 2 19 5 13 2 -7 2 -19 0 -25z
m-1406 -316 c-11 -19 -14 22 -12 153 3 147 16 152 19 7 1 -82 -2 -150 -7 -160z
m1416 256 c-3 -7 -5 -2 -5 12 0 14 2 19 5 13 2 -7 2 -19 0 -25z m10 -75 c-3
-10 -5 -4 -5 12 0 17 2 24 5 18 2 -7 2 -21 0 -30z m10 -70 c-3 -10 -5 -4 -5
12 0 17 2 24 5 18 2 -7 2 -21 0 -30z m10 -90 c-3 -10 -5 -2 -5 17 0 19 2 27 5
18 2 -10 2 -26 0 -35z m10 -90 c-3 -10 -5 -2 -5 17 0 19 2 27 5 18 2 -10 2
-26 0 -35z m-700 -110 c-2 -27 -3 -5 -3 47 0 52 1 74 3 48 2 -27 2 -69 0 -95z
m710 5 c-2 -13 -4 -5 -4 17 -1 22 1 32 4 23 2 -10 2 -28 0 -40z m-524 -95 c2
-40 0 -70 -4 -67 -5 3 -9 40 -8 82 1 91 6 85 12 -15z m534 -35 c-2 -13 -4 -3
-4 22 0 25 2 35 4 23 2 -13 2 -33 0 -45z"/>
</g>
</svg>
