<?xml version="1.0" standalone="no"?>
<!DOCTYPE svg PUBLIC "-//W3C//DTD SVG 20010904//EN"
 "http://www.w3.org/TR/2001/REC-SVG-20010904/DTD/svg10.dtd">
<svg version="1.0" xmlns="http://www.w3.org/2000/svg"
 width="500.000000pt" height="500.000000pt" viewBox="0 0 500.000000 500.000000"
 preserveAspectRatio="xMidYMid meet">

<g transform="translate(0.000000,500.000000) scale(0.100000,-0.100000)"
fill="#000000" stroke="none">
<path d="M2375 4107 c-8 -19 -251 -681 -540 -1473 -290 -791 -540 -1473 -557
-1514 -59 -149 -117 -228 -197 -268 -51 -24 -69 -27 -196 -32 -136 -5 -140 -6
-143 -27 l-3 -23 565 0 566 0 0 25 0 25 -207 0 c-286 1 -338 21 -350 134 -9
79 14 158 180 609 l160 437 610 -2 610 -3 148 -439 c176 -525 192 -593 149
-664 -37 -60 -81 -72 -277 -72 l-173 0 0 -25 0 -25 775 0 775 0 0 25 c0 22 -4
25 -33 25 -18 0 -58 7 -88 16 -72 21 -144 94 -192 195 -39 82 -43 94 -668
1857 l-444 1252 -228 0 -228 0 -14 -33z m-15 -497 c65 -250 135 -476 321
-1036 93 -281 169 -514 169 -517 0 -4 -265 -7 -589 -7 l-588 0 185 503 c224
610 356 975 408 1124 22 62 42 109 45 105 3 -4 25 -81 49 -172z"/>
</g>
</svg>
