<?xml version="1.0" encoding="UTF-8"?>
<svg xmlns="http://www.w3.org/2000/svg" xmlns:xlink="http://www.w3.org/1999/xlink" width="50px" height="px" viewBox="0 0 50 50" version="1.1">
<g id="surface1">
<path style=" stroke:none;fill-rule:nonzero;fill:rgb(0%,0%,0%);fill-opacity:1;" d="M 9.03125 1.679688 C 8.769531 1.726562 8.195312 1.945312 7.753906 2.148438 C 5.773438 3.105469 4.53125 5.273438 4.71875 7.460938 C 4.8125 8.585938 5.292969 9.734375 5.984375 10.546875 L 6.28125 10.878906 L 5.460938 11.007812 C 3.671875 11.289062 2.128906 12.414062 1.367188 14.003906 C 1.164062 14.445312 0.945312 15.058594 0.890625 15.371094 C 0.820312 15.742188 0.78125 18.078125 0.78125 21.796875 L 0.78125 27.648438 L 1.023438 27.882812 C 1.257812 28.125 1.289062 28.125 2.976562 28.125 L 4.6875 28.125 L 4.6875 47.960938 L 4.929688 48.195312 L 5.164062 48.4375 L 10.460938 48.4375 L 10.695312 48.195312 L 10.9375 47.960938 L 10.945312 43.289062 L 10.957031 38.625 L 11.757812 43.351562 C 12.492188 47.675781 12.578125 48.085938 12.78125 48.25 C 12.988281 48.429688 13.210938 48.4375 15.644531 48.4375 L 18.273438 48.4375 L 18.507812 48.195312 C 18.640625 48.066406 18.75 47.882812 18.75 47.78125 C 18.75 47.609375 16.53125 32.519531 16.464844 32.195312 C 16.425781 32.039062 16.5625 32.03125 18.367188 32.03125 L 20.3125 32.03125 L 20.3125 47.960938 L 20.554688 48.195312 L 20.789062 48.4375 L 29.210938 48.4375 L 29.445312 48.195312 L 29.6875 47.960938 L 29.6875 38.28125 L 31.007812 38.28125 C 32.296875 38.28125 32.34375 38.273438 32.578125 38.039062 L 32.820312 37.792969 L 32.792969 34.054688 L 32.765625 30.3125 L 32.421875 29.617188 L 32.078125 28.925781 L 32.597656 28.859375 C 32.882812 28.820312 33.398438 28.652344 33.742188 28.476562 L 34.375 28.15625 L 34.328125 28.457031 C 34.210938 29.132812 32.8125 39.015625 32.8125 39.179688 C 32.8125 39.289062 32.921875 39.472656 33.054688 39.601562 C 33.273438 39.824219 33.367188 39.84375 34.226562 39.84375 L 35.15625 39.84375 L 35.15625 47.960938 L 35.398438 48.195312 L 35.632812 48.4375 L 44.054688 48.4375 L 44.289062 48.195312 L 44.53125 47.960938 L 44.53125 39.84375 L 45.460938 39.84375 C 46.320312 39.84375 46.414062 39.824219 46.632812 39.601562 C 46.765625 39.472656 46.875 39.289062 46.875 39.179688 C 46.875 39.082031 46.632812 37.3125 46.335938 35.253906 C 46.046875 33.195312 45.800781 31.445312 45.800781 31.375 C 45.800781 31.28125 46.113281 31.25 47.265625 31.25 C 48.710938 31.25 48.742188 31.242188 48.984375 31.007812 L 49.226562 30.761719 L 49.199219 25.75 L 49.171875 20.75 L 48.914062 20.109375 C 48.546875 19.160156 48.195312 18.601562 47.546875 17.960938 C 47.011719 17.441406 45.789062 16.699219 45.449219 16.699219 C 45.351562 16.699219 45.320312 16.113281 45.292969 14.03125 C 45.253906 11.476562 45.242188 11.359375 45.007812 10.734375 C 44.648438 9.796875 44.316406 9.277344 43.640625 8.601562 C 42.859375 7.820312 41.757812 7.273438 40.632812 7.109375 C 37.1875 6.601562 34.109375 9.472656 34.40625 12.929688 C 34.5 14.054688 34.980469 15.203125 35.671875 16.015625 L 35.96875 16.347656 L 35.148438 16.476562 C 33.359375 16.757812 31.816406 17.882812 31.054688 19.472656 C 30.605469 20.421875 30.46875 21.09375 30.46875 22.429688 L 30.46875 23.4375 L 30.039062 23.4375 C 29.628906 23.4375 29.609375 23.429688 29.550781 23.105469 C 29.421875 22.453125 28.828125 21.4375 28.242188 20.878906 C 26.367188 19.09375 23.632812 19.09375 21.757812 20.878906 C 20.117188 22.441406 19.863281 24.953125 21.140625 26.855469 L 21.476562 27.34375 L 15.75 27.34375 L 15.683594 26.972656 C 15.65625 26.777344 15.625 24.316406 15.625 21.503906 L 15.625 16.40625 L 18.886719 16.40625 C 22.140625 16.40625 22.15625 16.40625 22.390625 16.179688 C 22.53125 16.0625 23.867188 14.550781 25.382812 12.8125 C 27.753906 10.097656 28.125 9.628906 28.125 9.355469 C 28.125 9.082031 27.949219 8.859375 26.726562 7.648438 C 25.476562 6.398438 25.304688 6.25 25 6.25 C 24.695312 6.25 24.460938 6.453125 22.3125 8.59375 L 19.960938 10.9375 L 14.042969 10.9375 L 14.199219 10.710938 C 14.765625 9.941406 15.148438 9.289062 15.34375 8.757812 C 15.546875 8.195312 15.566406 7.976562 15.605469 5.109375 L 15.644531 2.0625 L 15.390625 1.804688 L 15.148438 1.5625 L 12.335938 1.570312 C 10.789062 1.582031 9.304688 1.621094 9.03125 1.679688 Z M 14.042969 5.546875 L 14.015625 7.96875 L 13.652344 8.710938 C 13.210938 9.601562 12.648438 10.148438 11.738281 10.578125 C 11.140625 10.859375 10.996094 10.890625 10.15625 10.890625 C 9.316406 10.890625 9.171875 10.859375 8.574219 10.578125 C 7.664062 10.148438 7.101562 9.601562 6.660156 8.710938 C 6.320312 8.007812 6.296875 7.921875 6.296875 7.039062 C 6.296875 6.191406 6.328125 6.046875 6.609375 5.449219 C 6.777344 5.085938 7.101562 4.601562 7.3125 4.367188 C 7.742188 3.898438 8.632812 3.378906 9.238281 3.234375 C 9.453125 3.183594 10.625 3.144531 11.84375 3.132812 L 14.082031 3.125 Z M 25.65625 8.808594 L 26.257812 9.421875 L 23.898438 12.128906 L 21.53125 14.84375 L 14.539062 14.84375 L 14.304688 15.085938 L 14.0625 15.320312 L 14.0625 26.621094 L 15.527344 36.523438 C 16.328125 41.972656 17.011719 46.53125 17.039062 46.648438 L 17.089844 46.875 L 15.539062 46.875 C 14.140625 46.875 13.976562 46.855469 13.925781 46.699219 C 13.90625 46.609375 13.210938 42.492188 12.390625 37.546875 C 11.046875 29.453125 10.878906 28.546875 10.671875 28.339844 C 10.382812 28.046875 9.921875 28.054688 9.617188 28.367188 L 9.375 28.601562 L 9.375 46.875 L 6.25 46.875 L 6.25 16.40625 L 4.6875 16.40625 L 4.6875 26.5625 L 2.335938 26.5625 L 2.390625 15.46875 L 2.753906 14.726562 C 3.195312 13.835938 3.757812 13.289062 4.667969 12.859375 L 5.320312 12.546875 L 13.007812 12.5 L 20.703125 12.453125 L 22.820312 10.320312 C 23.992188 9.160156 24.96875 8.203125 25 8.203125 C 25.03125 8.203125 25.320312 8.476562 25.65625 8.808594 Z M 41.445312 8.964844 C 42.324219 9.375 42.898438 9.941406 43.339844 10.820312 L 43.703125 11.5625 L 43.730469 13.992188 L 43.769531 16.425781 L 41.335938 16.386719 L 38.914062 16.359375 L 38.261719 16.046875 C 37.351562 15.617188 36.789062 15.070312 36.347656 14.179688 C 36.007812 13.476562 35.984375 13.390625 35.984375 12.507812 C 35.984375 11.660156 36.015625 11.515625 36.296875 10.917969 C 36.6875 10.085938 37.246094 9.484375 37.976562 9.101562 C 38.742188 8.691406 39.171875 8.59375 40.058594 8.632812 C 40.65625 8.664062 40.957031 8.742188 41.445312 8.964844 Z M 45.429688 18.378906 C 46.320312 18.820312 46.867188 19.382812 47.296875 20.292969 L 47.609375 20.945312 L 47.636719 25.3125 L 47.664062 29.6875 L 45.539062 29.6875 L 45.429688 28.875 C 45.359375 28.398438 45.3125 26.6875 45.3125 24.578125 L 45.3125 21.09375 L 43.75 21.09375 L 43.75 27.34375 L 35.9375 27.34375 L 35.9375 21.09375 L 34.375 21.09375 L 34.375 23.203125 C 34.375 25.710938 34.328125 25.929688 33.640625 26.609375 C 32.96875 27.285156 32.726562 27.34375 30.429688 27.34375 L 28.515625 27.34375 L 28.847656 26.855469 C 29.179688 26.375 29.589844 25.429688 29.589844 25.148438 C 29.589844 25.03125 29.773438 25 30.554688 25 C 32.023438 25 31.972656 25.070312 32.03125 22.78125 C 32.078125 20.976562 32.089844 20.9375 32.390625 20.292969 C 32.558594 19.929688 32.882812 19.445312 33.09375 19.210938 C 33.523438 18.742188 34.414062 18.222656 35.019531 18.078125 C 35.234375 18.027344 37.429688 17.988281 40.046875 18 L 44.6875 18.015625 Z M 26.476562 21.492188 C 27.128906 21.84375 27.429688 22.15625 27.8125 22.890625 C 28.027344 23.3125 28.066406 23.515625 28.066406 24.21875 C 28.078125 24.980469 28.046875 25.097656 27.742188 25.664062 C 27.375 26.347656 27.0625 26.640625 26.328125 27.03125 C 25.90625 27.246094 25.703125 27.285156 25 27.285156 C 24.296875 27.285156 24.09375 27.246094 23.671875 27.03125 C 22.9375 26.640625 22.625 26.347656 22.257812 25.664062 C 21.953125 25.097656 21.921875 24.980469 21.933594 24.21875 C 21.933594 23.242188 22.167969 22.65625 22.804688 22.023438 C 23.78125 21.046875 25.234375 20.839844 26.476562 21.492188 Z M 29.628906 29.023438 C 30.164062 29.179688 30.976562 29.992188 31.132812 30.527344 C 31.210938 30.800781 31.25 31.835938 31.25 33.828125 L 31.25 36.71875 L 29.6875 36.71875 L 29.6875 31.25 L 28.125 31.25 L 28.125 46.875 L 25.78125 46.875 L 25.78125 37.5 L 24.21875 37.5 L 24.21875 46.875 L 21.875 46.875 L 21.875 30.945312 L 21.632812 30.710938 L 21.398438 30.46875 L 16.230469 30.46875 L 16.179688 30.242188 C 16.152344 30.125 16.09375 29.773438 16.0625 29.460938 L 15.996094 28.90625 L 22.609375 28.90625 C 27.519531 28.90625 29.328125 28.9375 29.628906 29.023438 Z M 43.886719 29.171875 C 43.914062 29.328125 44.210938 31.328125 44.53125 33.640625 C 44.851562 35.945312 45.148438 37.9375 45.164062 38.054688 L 45.214844 38.28125 L 34.472656 38.28125 L 34.523438 38.054688 C 34.539062 37.9375 34.835938 35.945312 35.15625 33.640625 C 35.476562 31.328125 35.773438 29.328125 35.800781 29.171875 L 35.859375 28.90625 L 43.828125 28.90625 Z M 39.0625 43.359375 L 39.0625 46.875 L 36.71875 46.875 L 36.71875 39.84375 L 39.0625 39.84375 Z M 42.96875 43.359375 L 42.96875 46.875 L 40.625 46.875 L 40.625 39.84375 L 42.96875 39.84375 Z M 42.96875 43.359375 "/>
<path style=" stroke:none;fill-rule:nonzero;fill:rgb(0%,0%,0%);fill-opacity:1;" d="M 8.59375 14.84375 L 8.59375 15.625 L 9.375 15.625 L 9.375 23.4375 L 10.9375 23.4375 L 10.9375 15.625 L 11.71875 15.625 L 11.71875 14.0625 L 8.59375 14.0625 Z M 8.59375 14.84375 "/>
</g>
</svg>
