<?xml version="1.0" encoding="UTF-8"?>
<svg xmlns="http://www.w3.org/2000/svg" xmlns:xlink="http://www.w3.org/1999/xlink" width="50px" height="px" viewBox="0 0 50 50" version="1.1">
<g id="surface1">
<path style=" stroke:none;fill-rule:nonzero;fill:rgb(0%,0%,0%);fill-opacity:1;" d="M 21.914062 0.0859375 C 20.984375 0.3125 20.007812 1.132812 19.601562 2.03125 C 19.277344 2.726562 19.316406 4.070312 19.667969 5.125 C 20.332031 7.101562 21.789062 8.710938 23.574219 9.453125 C 24.375 9.785156 25.46875 9.804688 26.320312 9.492188 C 27.960938 8.886719 29.539062 7.246094 30.214844 5.460938 C 30.945312 3.484375 30.722656 1.984375 29.53125 0.890625 C 28.390625 -0.15625 26.765625 -0.273438 25.460938 0.59375 L 25 0.898438 L 24.539062 0.59375 C 23.75 0.0703125 22.773438 -0.117188 21.914062 0.0859375 Z M 23.210938 1.765625 C 23.574219 1.90625 24.003906 2.3125 24.21875 2.742188 C 24.617188 3.507812 25.390625 3.457031 25.828125 2.648438 C 26.601562 1.230469 28.457031 1.40625 28.914062 2.929688 C 29.070312 3.445312 28.835938 4.578125 28.398438 5.46875 C 27.714844 6.828125 26.0625 8.066406 24.953125 8.046875 C 24.226562 8.039062 23.429688 7.609375 22.609375 6.789062 C 21.816406 5.996094 21.359375 5.15625 21.132812 4.082031 C 20.945312 3.195312 21.023438 2.726562 21.414062 2.273438 C 21.914062 1.710938 22.578125 1.523438 23.210938 1.765625 Z M 23.210938 1.765625 "/>
<path style=" stroke:none;fill-rule:nonzero;fill:rgb(0%,0%,0%);fill-opacity:1;" d="M 9.5 9.71875 C 8.320312 10.039062 7.421875 10.773438 6.882812 11.835938 C 6.699219 12.21875 6.542969 12.609375 6.542969 12.703125 C 6.542969 12.832031 6.414062 12.898438 6.054688 12.976562 C 4.617188 13.289062 3.46875 14.355469 3.027344 15.800781 C 2.851562 16.359375 2.832031 16.710938 2.832031 18.914062 L 2.832031 21.398438 L 3.078125 21.632812 C 3.339844 21.894531 3.847656 21.953125 4.109375 21.75 C 4.460938 21.484375 4.492188 21.230469 4.492188 18.875 C 4.5 16.375 4.539062 16.101562 5.019531 15.476562 C 5.429688 14.953125 6.023438 14.65625 6.882812 14.5625 C 7.832031 14.453125 7.988281 14.316406 8.105469 13.484375 C 8.203125 12.78125 8.554688 12.128906 9.015625 11.777344 C 9.695312 11.257812 9.902344 11.230469 13.574219 11.230469 C 15.4375 11.230469 17.207031 11.269531 17.492188 11.328125 C 18.25 11.464844 19.316406 12.023438 19.875 12.570312 C 20.476562 13.164062 20.839844 13.730469 21.113281 14.539062 C 21.328125 15.15625 21.335938 15.304688 21.335938 18.359375 L 21.335938 21.53125 L 21.074219 21.984375 C 20.929688 22.226562 20.695312 22.507812 20.554688 22.597656 L 20.3125 22.753906 L 20.3125 20.917969 C 20.3125 18.835938 20.195312 18.195312 19.71875 17.539062 C 19.382812 17.078125 18.78125 16.640625 18.273438 16.503906 C 18.054688 16.445312 15.957031 16.40625 12.882812 16.40625 C 7.285156 16.40625 7.3125 16.40625 6.554688 17.0625 C 6.328125 17.246094 6.023438 17.625 5.878906 17.910156 L 5.617188 18.40625 L 5.585938 22.023438 C 5.566406 25.039062 5.585938 25.75 5.710938 26.414062 C 6.101562 28.320312 7.195312 29.96875 8.789062 31.054688 C 9.132812 31.289062 9.375 31.523438 9.375 31.621094 C 9.375 31.960938 8.808594 32.695312 8.339844 32.96875 C 7.890625 33.234375 7.773438 33.25 6.328125 33.320312 C 5 33.378906 4.6875 33.417969 3.984375 33.664062 C 2.492188 34.179688 1.335938 35.175781 0.644531 36.554688 C 0.0195312 37.78125 0 38 0 44.023438 L 0 49.433594 L 0.28125 49.71875 C 0.703125 50.125 1.320312 50.046875 1.554688 49.539062 C 1.632812 49.382812 1.660156 47.6875 1.660156 44.015625 C 1.660156 39.539062 1.679688 38.625 1.816406 38.132812 C 2.3125 36.203125 4.03125 34.96875 6.28125 34.960938 C 6.503906 34.960938 6.640625 35.007812 6.640625 35.078125 C 6.640625 35.148438 6.179688 36.367188 5.617188 37.792969 C 4.617188 40.304688 4.523438 40.625 4.648438 40.957031 C 4.679688 41.046875 6.375 42.609375 8.40625 44.445312 L 12.109375 47.773438 L 12.109375 48.632812 C 12.109375 49.628906 12.234375 49.875 12.804688 49.960938 C 13.085938 50.007812 13.203125 49.96875 13.4375 49.773438 C 13.703125 49.539062 13.71875 49.472656 13.769531 48.613281 L 13.820312 47.695312 L 17.382812 44.492188 C 20.761719 41.453125 21.289062 40.9375 21.289062 40.644531 C 21.289062 40.578125 20.8125 39.296875 20.214844 37.792969 C 19.628906 36.289062 19.140625 35.03125 19.140625 35.007812 C 19.140625 34.929688 19.941406 34.960938 20.605469 35.058594 C 21.945312 35.273438 23.15625 36.171875 23.757812 37.402344 L 24.070312 38.039062 L 24.121094 43.703125 C 24.171875 48.90625 24.179688 49.394531 24.34375 49.640625 C 24.648438 50.109375 25.351562 50.109375 25.65625 49.640625 C 25.820312 49.394531 25.828125 48.90625 25.878906 43.703125 L 25.929688 38.039062 L 26.242188 37.402344 C 26.757812 36.359375 27.714844 35.515625 28.789062 35.1875 C 29.042969 35.109375 29.921875 35.007812 30.8125 34.96875 C 32.285156 34.902344 32.414062 34.882812 33.015625 34.589844 C 33.796875 34.21875 34.570312 33.429688 34.929688 32.65625 L 35.175781 32.117188 L 35.585938 32.195312 C 36.09375 32.296875 38 32.296875 38.585938 32.195312 L 39.023438 32.117188 L 39.304688 32.714844 C 39.65625 33.457031 40.515625 34.289062 41.28125 34.640625 C 41.789062 34.875 42.011719 34.914062 43.417969 34.96875 C 45.070312 35.046875 45.527344 35.15625 46.414062 35.671875 C 47.226562 36.152344 47.921875 37.117188 48.183594 38.132812 C 48.320312 38.625 48.339844 39.539062 48.339844 44.015625 C 48.339844 47.6875 48.367188 49.382812 48.445312 49.539062 C 48.679688 50.046875 49.296875 50.125 49.71875 49.71875 L 50 49.433594 L 50 44.023438 C 50 38.027344 49.980469 37.804688 49.375 36.570312 C 49.003906 35.828125 48.203125 34.863281 47.570312 34.433594 L 47.179688 34.160156 L 47.140625 25.253906 C 47.109375 15.265625 47.15625 16.035156 46.347656 14.304688 C 45.320312 12.140625 43.28125 10.449219 40.917969 9.8125 C 40.109375 9.589844 35.203125 9.484375 34.0625 9.667969 C 30.773438 10.175781 28.144531 12.558594 27.226562 15.867188 C 27.011719 16.632812 27.011719 16.777344 26.972656 23.359375 C 26.945312 30.742188 26.921875 30.507812 27.539062 30.761719 C 27.898438 30.90625 28.328125 30.761719 28.507812 30.4375 C 28.574219 30.292969 28.625 28.222656 28.640625 23.535156 C 28.671875 16.0625 28.640625 16.414062 29.394531 14.882812 C 30.125 13.390625 31.5625 12.140625 33.210938 11.570312 C 34.023438 11.289062 34.0625 11.289062 36.6875 11.25 C 39.796875 11.203125 40.476562 11.296875 41.75 11.914062 C 43.183594 12.617188 44.21875 13.664062 44.875 15.085938 C 45.515625 16.476562 45.507812 16.308594 45.507812 25.351562 C 45.507812 33.085938 45.5 33.515625 45.34375 33.445312 C 45.242188 33.40625 44.550781 33.359375 43.796875 33.328125 C 42.195312 33.273438 41.90625 33.203125 41.386719 32.734375 C 40.90625 32.296875 40.632812 31.765625 40.554688 31.125 C 40.488281 30.527344 40.1875 30.175781 39.765625 30.175781 C 39.609375 30.175781 39.226562 30.265625 38.90625 30.382812 C 38.171875 30.632812 36.828125 30.734375 36.015625 30.578125 C 33.953125 30.175781 32.167969 28.523438 31.582031 26.464844 C 31.453125 26.046875 31.414062 25.273438 31.375 23.046875 L 31.335938 20.164062 L 32.296875 19.707031 C 32.820312 19.453125 33.515625 19.03125 33.828125 18.78125 L 34.414062 18.300781 L 35.097656 18.820312 C 36.960938 20.226562 39.179688 20.890625 41.632812 20.773438 L 42.792969 20.722656 L 42.753906 23.417969 C 42.714844 25.898438 42.695312 26.171875 42.5 26.726562 C 42.234375 27.480469 42.226562 27.871094 42.480469 28.125 C 42.976562 28.625 43.5625 28.445312 43.90625 27.6875 C 44.34375 26.738281 44.421875 25.917969 44.433594 22.507812 C 44.433594 19.796875 44.414062 19.34375 44.277344 19.160156 C 44.023438 18.789062 43.710938 18.730469 43.039062 18.914062 C 42.179688 19.148438 39.929688 19.148438 39.0625 18.90625 C 37.703125 18.535156 36.425781 17.84375 35.5 16.984375 C 34.445312 15.996094 34.277344 15.984375 33.429688 16.84375 C 32.734375 17.558594 31.867188 18.164062 31.171875 18.417969 C 30.007812 18.835938 29.902344 18.90625 29.785156 19.316406 C 29.695312 19.589844 29.679688 20.605469 29.707031 22.910156 C 29.757812 26.054688 29.765625 26.140625 30.019531 27 C 30.515625 28.652344 31.640625 30.195312 32.96875 31.074219 C 33.476562 31.40625 33.585938 31.523438 33.535156 31.6875 C 33.429688 32.050781 32.960938 32.65625 32.539062 32.960938 C 32.128906 33.242188 32.089844 33.25 30.578125 33.3125 C 28.9375 33.378906 28.273438 33.515625 27.390625 33.953125 C 26.640625 34.34375 25.867188 34.980469 25.4375 35.578125 C 25.226562 35.878906 25.03125 36.125 25 36.125 C 24.96875 36.125 24.796875 35.90625 24.609375 35.632812 C 24.1875 35.039062 23.367188 34.34375 22.648438 33.984375 C 21.738281 33.523438 21.085938 33.378906 19.492188 33.3125 C 18.117188 33.25 17.976562 33.234375 17.558594 32.976562 C 17.078125 32.695312 16.789062 32.351562 16.554688 31.796875 L 16.40625 31.464844 L 16.835938 31.210938 C 17.910156 30.585938 19.238281 29.054688 19.238281 28.445312 C 19.238281 28.007812 18.875 27.636719 18.445312 27.636719 C 18.195312 27.636719 18.054688 27.726562 17.78125 28.046875 C 16.554688 29.492188 15.515625 30.214844 14.25 30.515625 C 12.976562 30.8125 11.347656 30.605469 10.226562 30.007812 C 9.445312 29.589844 8.210938 28.3125 7.820312 27.5 C 7.285156 26.367188 7.226562 25.90625 7.226562 22.234375 C 7.226562 19.472656 7.246094 18.886719 7.375 18.652344 C 7.675781 18.054688 7.625 18.066406 12.976562 18.066406 L 17.851562 18.066406 L 18.15625 18.320312 C 18.320312 18.457031 18.496094 18.730469 18.554688 18.925781 C 18.601562 19.132812 18.652344 20.371094 18.652344 21.75 L 18.652344 24.210938 L 18.925781 24.414062 C 19.148438 24.601562 19.277344 24.617188 19.785156 24.578125 C 21.023438 24.484375 22.039062 23.769531 22.625 22.578125 L 23 21.835938 L 23 18.46875 C 23 14.765625 22.96875 14.539062 22.414062 13.328125 C 21.640625 11.660156 20.390625 10.527344 18.601562 9.890625 L 17.820312 9.617188 L 13.914062 9.601562 C 10.761719 9.578125 9.914062 9.601562 9.5 9.71875 Z M 12.9375 32.273438 C 13.535156 32.273438 14.210938 32.234375 14.453125 32.195312 L 14.890625 32.117188 L 15.125 32.664062 C 15.359375 33.203125 16.113281 34.082031 16.601562 34.394531 L 16.84375 34.539062 L 14.890625 39.734375 C 13.828125 42.585938 12.921875 44.890625 12.890625 44.851562 C 12.851562 44.804688 12.390625 43.625 11.875 42.226562 C 11.269531 40.617188 10.839844 39.589844 10.703125 39.460938 C 10.398438 39.179688 9.921875 39.1875 9.617188 39.5 C 9.210938 39.902344 9.199219 39.835938 10.683594 43.796875 L 10.945312 44.472656 L 10.722656 44.277344 C 8.859375 42.617188 6.445312 40.398438 6.445312 40.332031 C 6.445312 40.203125 8.300781 35.507812 8.378906 35.429688 C 8.417969 35.390625 9.382812 35.859375 10.539062 36.476562 C 11.835938 37.179688 12.726562 37.597656 12.898438 37.597656 C 13.242188 37.597656 14.289062 37.089844 14.609375 36.765625 C 14.902344 36.464844 14.921875 35.917969 14.648438 35.644531 C 14.316406 35.3125 14.015625 35.304688 13.4375 35.59375 L 12.910156 35.859375 L 11.296875 35 L 9.695312 34.132812 L 10.117188 33.652344 C 10.351562 33.390625 10.632812 32.9375 10.761719 32.648438 L 10.984375 32.128906 L 11.425781 32.195312 C 11.671875 32.246094 12.351562 32.273438 12.9375 32.273438 Z M 18.691406 38.46875 C 19.304688 40.019531 19.421875 40.390625 19.316406 40.488281 C 18.925781 40.878906 14.992188 44.40625 14.960938 44.382812 C 14.941406 44.375 15.539062 42.78125 17.695312 37.03125 C 17.804688 36.75 17.898438 36.523438 17.921875 36.542969 C 17.929688 36.5625 18.28125 37.421875 18.691406 38.46875 Z M 18.691406 38.46875 "/>
<path style=" stroke:none;fill-rule:nonzero;fill:rgb(0%,0%,0%);fill-opacity:1;" d="M 32.765625 38.574219 C 30.5 38.945312 28.90625 40.878906 28.90625 43.273438 C 28.90625 44.773438 29.21875 46.503906 29.84375 48.457031 C 30.226562 49.667969 30.46875 50 30.96875 50 C 31.367188 50 31.738281 49.617188 31.738281 49.210938 C 31.738281 49.03125 31.59375 48.429688 31.40625 47.859375 C 30.867188 46.191406 30.632812 44.941406 30.625 43.554688 C 30.617188 42.460938 30.632812 42.285156 30.839844 41.875 C 31.777344 40 34.179688 39.640625 35.539062 41.171875 C 35.96875 41.660156 36.230469 42.3125 36.230469 42.898438 C 36.230469 43.390625 36.648438 43.847656 37.109375 43.847656 C 37.5 43.847656 37.890625 43.46875 37.890625 43.09375 C 37.890625 42.21875 38.40625 41.203125 39.101562 40.734375 C 39.773438 40.273438 40.265625 40.164062 41.492188 40.234375 C 41.972656 40.253906 42.050781 40.234375 42.257812 40 C 42.6875 39.5 42.480469 38.886719 41.816406 38.664062 C 41.230469 38.46875 40.078125 38.507812 39.328125 38.757812 C 38.640625 38.992188 37.6875 39.617188 37.324219 40.085938 L 37.109375 40.359375 L 36.542969 39.824219 C 35.476562 38.808594 34.109375 38.359375 32.765625 38.574219 Z M 32.765625 38.574219 "/>
<path style=" stroke:none;fill-rule:nonzero;fill:rgb(0%,0%,0%);fill-opacity:1;" d="M 43.875 42.128906 C 43.613281 42.351562 43.601562 42.390625 43.546875 43.710938 C 43.476562 45.203125 43.261719 46.296875 42.726562 47.949219 C 42.539062 48.535156 42.382812 49.109375 42.382812 49.226562 C 42.382812 49.5 42.898438 50 43.195312 50 C 43.679688 50 43.914062 49.667969 44.328125 48.398438 C 44.882812 46.6875 45.226562 44.929688 45.234375 43.664062 C 45.253906 42.441406 45.195312 42.234375 44.824219 42.039062 C 44.421875 41.835938 44.1875 41.855469 43.875 42.128906 Z M 43.875 42.128906 "/>
</g>
</svg>
