<?xml version="1.0" encoding="UTF-8"?>
<svg xmlns="http://www.w3.org/2000/svg" xmlns:xlink="http://www.w3.org/1999/xlink" width="50px" height="px" viewBox="0 0 50 50" version="1.1">
<g id="surface1">
<path style=" stroke:none;fill-rule:nonzero;fill:rgb(0%,0%,0%);fill-opacity:1;" d="M 22.609375 0.109375 C 16.804688 0.703125 11.484375 3.203125 7.421875 7.226562 C 0.683594 13.886719 -1.6875 23.730469 1.269531 32.726562 C 3.953125 40.890625 10.625 47.128906 18.898438 49.210938 C 21.203125 49.785156 22.46875 49.941406 25 49.941406 C 26.914062 49.941406 27.507812 49.902344 28.613281 49.71875 C 33.691406 48.875 37.765625 46.984375 41.503906 43.691406 C 46.023438 39.726562 48.835938 34.5 49.773438 28.351562 C 49.980469 27 50 23.417969 49.824219 21.972656 C 48.90625 14.773438 45.03125 8.398438 39.109375 4.375 C 35.90625 2.1875 32.46875 0.851562 28.515625 0.242188 C 27.285156 0.0585938 23.859375 -0.03125 22.609375 0.109375 Z M 27.734375 3.75 C 33 4.460938 37.78125 7.03125 41.164062 10.957031 C 45.839844 16.40625 47.519531 23.757812 45.644531 30.617188 C 45.097656 32.597656 44.09375 34.863281 43.027344 36.476562 L 42.453125 37.351562 L 42.179688 36.367188 C 40.898438 31.765625 37.832031 27.851562 33.710938 25.527344 L 32.910156 25.070312 L 33.15625 24.765625 C 34.375 23.273438 35.117188 21.699219 35.5 19.8125 C 35.734375 18.671875 35.664062 16.296875 35.359375 15.136719 C 35.058594 14.003906 34.238281 12.324219 33.507812 11.359375 C 30.476562 7.351562 25.058594 6.023438 20.460938 8.144531 C 17.453125 9.539062 15.214844 12.351562 14.523438 15.625 C 14.257812 16.894531 14.257812 18.75 14.523438 20.019531 C 14.863281 21.632812 15.539062 23.066406 16.601562 24.453125 L 17.078125 25.078125 L 16.164062 25.59375 C 13.117188 27.3125 10.476562 30.148438 8.9375 33.351562 C 8.46875 34.328125 7.898438 35.890625 7.714844 36.738281 C 7.648438 37.050781 7.558594 37.304688 7.53125 37.304688 C 7.492188 37.304688 7.234375 36.945312 6.960938 36.492188 C 4.824219 33.09375 3.757812 29.628906 3.640625 25.632812 C 3.523438 21.992188 4.210938 18.820312 5.800781 15.578125 C 7.351562 12.421875 9.394531 9.953125 12.167969 7.882812 C 15.195312 5.617188 18.710938 4.1875 22.414062 3.71875 C 23.515625 3.585938 26.601562 3.601562 27.734375 3.75 Z M 26.75 10.898438 C 27.753906 11.152344 29.015625 11.855469 29.804688 12.597656 C 33.730469 16.257812 32.480469 22.558594 27.441406 24.5 C 24.890625 25.488281 22.023438 24.851562 20.019531 22.851562 C 18.632812 21.476562 18 20.078125 17.898438 18.210938 C 17.695312 14.53125 20.320312 11.296875 23.945312 10.75 C 24.679688 10.644531 26.007812 10.710938 26.75 10.898438 Z M 21.035156 27.773438 C 22.234375 28.3125 23.15625 28.46875 25 28.46875 C 26.835938 28.46875 27.546875 28.339844 28.9375 27.78125 L 29.53125 27.539062 L 30.058594 27.734375 C 31.894531 28.417969 33.484375 29.472656 35.019531 30.996094 C 37.558594 33.523438 39.015625 36.671875 39.210938 40.039062 L 39.265625 40.96875 L 38.476562 41.601562 C 35.527344 43.964844 32.109375 45.5 28.320312 46.140625 C 26.867188 46.398438 24.03125 46.445312 22.492188 46.25 C 18.40625 45.734375 14.796875 44.199219 11.542969 41.609375 L 10.722656 40.96875 L 10.773438 40.039062 C 11.035156 35.476562 13.742188 31.152344 17.871094 28.710938 C 18.367188 28.40625 20.273438 27.546875 20.429688 27.539062 C 20.46875 27.539062 20.742188 27.648438 21.035156 27.773438 Z M 21.035156 27.773438 "/>
</g>
</svg>
