<?xml version="1.0" standalone="no"?>
<!DOCTYPE svg PUBLIC "-//W3C//DTD SVG 20010904//EN"
 "http://www.w3.org/TR/2001/REC-SVG-20010904/DTD/svg10.dtd">
<svg version="1.0" xmlns="http://www.w3.org/2000/svg"
 width="529.000000pt" height="240.000000pt" viewBox="0 0 529.000000 240.000000"
 preserveAspectRatio="xMidYMid meet">

<g transform="translate(0.000000,240.000000) scale(0.100000,-0.100000)"
fill="#000000" stroke="none">
<path d="M3494 2099 c-32 -16 -54 -62 -54 -114 0 -40 5 -52 34 -81 30 -30 41
-34 84 -34 83 0 130 57 119 143 -8 61 -51 97 -115 96 -26 0 -56 -5 -68 -10z"/>
<path d="M490 2010 c0 -5 18 -10 41 -10 53 0 74 -13 88 -51 15 -43 15 -1173 1
-1216 -13 -35 -46 -53 -95 -53 -19 0 -35 -4 -35 -10 0 -7 158 -10 453 -10
l454 0 6 113 c10 158 9 309 -2 303 -4 -3 -11 -53 -13 -111 -5 -90 -10 -114
-34 -163 -51 -101 -116 -124 -335 -120 l-134 3 -3 609 c-1 383 2 622 8 646 11
43 41 60 100 60 22 0 40 5 40 10 0 6 -97 10 -270 10 -173 0 -270 -4 -270 -10z"/>
<path d="M3133 1746 c-17 -8 -46 -34 -63 -58 -17 -24 -34 -43 -38 -42 -4 0
-29 11 -56 23 -91 43 -236 44 -330 2 -59 -26 -112 -83 -137 -150 -30 -75 -32
-236 -6 -296 30 -67 68 -114 119 -147 l48 -32 -47 -25 c-126 -69 -150 -222
-51 -321 16 -16 45 -32 66 -36 l37 -7 -69 -19 c-129 -35 -186 -95 -186 -196 0
-101 55 -167 170 -203 173 -54 412 -27 526 60 167 126 163 420 -6 515 -54 31
-57 31 -233 36 l-179 5 -24 28 c-30 35 -31 80 -4 125 19 31 23 32 58 25 62
-13 175 -7 232 12 119 40 181 137 188 295 4 108 -15 178 -69 246 l-29 37 22
24 c42 44 92 23 103 -45 10 -60 13 -64 37 -57 77 24 99 134 39 189 -26 23 -80
29 -118 12z m-278 -70 c44 -19 63 -57 77 -158 13 -97 5 -335 -13 -390 -18 -57
-52 -83 -106 -83 -94 0 -117 74 -111 349 3 158 7 187 25 228 17 37 28 49 55
57 18 5 34 10 36 10 1 1 18 -5 37 -13z m145 -1045 c61 -30 92 -129 71 -224
-16 -73 -46 -117 -99 -144 -91 -46 -240 -40 -309 13 -64 49 -90 156 -63 256
11 40 76 103 114 112 43 9 261 0 286 -13z"/>
<path d="M1805 1687 c-129 -43 -202 -126 -246 -282 -34 -117 -34 -345 -1 -460
28 -96 55 -146 113 -202 152 -150 451 -129 576 40 67 91 85 162 91 354 3 127
1 177 -12 235 -33 147 -98 241 -203 293 -52 26 -70 29 -168 32 -71 2 -124 -2
-150 -10z m203 -24 c31 -19 58 -82 71 -163 18 -108 24 -394 12 -535 -15 -171
-34 -236 -79 -276 -31 -28 -40 -31 -81 -26 -87 10 -124 85 -141 287 -12 146
-12 304 0 450 15 183 47 260 113 279 37 10 72 5 105 -16z"/>
<path d="M4389 1690 c-46 -14 -78 -41 -114 -98 l-35 -56 0 72 0 72 -180 0
c-113 0 -180 -4 -180 -10 0 -5 16 -10 35 -10 42 0 70 -28 79 -78 9 -58 7 -783
-4 -826 -11 -51 -28 -66 -78 -73 -23 -3 -39 -9 -36 -14 8 -13 474 -12 474 1 0
6 -9 10 -20 10 -35 0 -69 22 -80 53 -14 41 -13 655 1 732 20 107 70 175 131
175 44 0 64 -15 84 -62 17 -39 19 -81 22 -480 l3 -438 175 0 c109 0 174 4 174
10 0 6 -9 10 -21 10 -29 0 -56 17 -71 43 -10 16 -14 122 -19 402 -4 319 -8
387 -22 423 -41 106 -109 153 -223 151 -38 0 -81 -4 -95 -9z"/>
<path d="M3320 1670 c0 -5 15 -10 34 -10 19 0 44 -9 57 -19 l24 -19 3 -424 c2
-274 -1 -436 -7 -459 -11 -38 -42 -59 -86 -59 -14 0 -25 -4 -25 -10 0 -6 88
-10 245 -10 157 0 245 4 245 10 0 6 -14 10 -31 10 -20 0 -40 10 -60 29 l-29
29 0 471 0 471 -185 0 c-117 0 -185 -4 -185 -10z"/>
</g>
</svg>
