<?xml version="1.0" encoding="UTF-8"?>
<svg xmlns="http://www.w3.org/2000/svg" xmlns:xlink="http://www.w3.org/1999/xlink" width="50px" height="px" viewBox="0 0 50 50" version="1.1">
<g id="surface1">
<path style=" stroke:none;fill-rule:nonzero;fill:rgb(0%,0%,0%);fill-opacity:1;" d="M 20.226562 0.109375 C 18.953125 0.351562 17.636719 1.375 17.039062 2.570312 C 16.855469 2.9375 16.699219 3.300781 16.699219 3.367188 C 16.699219 3.46875 16.320312 3.507812 15.097656 3.535156 C 13.496094 3.5625 13.496094 3.5625 13.066406 3.859375 C 12.8125 4.042969 12.558594 4.328125 12.414062 4.617188 L 12.1875 5.078125 L 7.726562 5.078125 C 3.300781 5.078125 3.273438 5.078125 2.890625 5.304688 C 2.675781 5.421875 2.414062 5.644531 2.304688 5.789062 L 2.101562 6.0625 L 2.101562 48.976562 L 2.335938 49.304688 C 2.460938 49.484375 2.742188 49.71875 2.96875 49.8125 C 3.351562 49.992188 4.023438 50 21.113281 50 C 33.390625 50 38.9375 49.96875 39.132812 49.890625 C 39.539062 49.746094 40.03125 49.226562 40.136719 48.828125 C 40.195312 48.632812 40.234375 47.039062 40.234375 45.15625 L 40.234375 41.816406 L 40.59375 41.75 C 41.113281 41.648438 42.335938 41.152344 43 40.761719 C 44.824219 39.6875 46.386719 37.929688 47.15625 36.085938 C 47.921875 34.25 48.144531 32.140625 47.765625 30.292969 C 47.101562 27.109375 45.195312 24.65625 42.296875 23.25 C 41.867188 23.046875 41.230469 22.804688 40.878906 22.703125 L 40.234375 22.53125 L 40.234375 6.375 L 40.007812 5.945312 C 39.851562 5.644531 39.65625 5.449219 39.355469 5.292969 C 38.925781 5.078125 38.898438 5.078125 34.453125 5.078125 C 30.851562 5.078125 29.980469 5.046875 29.980469 4.953125 C 29.980469 4.640625 29.421875 3.984375 28.964844 3.757812 C 28.515625 3.535156 28.367188 3.515625 27.0625 3.515625 L 25.632812 3.507812 L 25.265625 2.726562 C 24.328125 0.75 22.304688 -0.304688 20.226562 0.109375 Z M 22.070312 1.679688 C 23.117188 2 23.925781 2.949219 24.21875 4.179688 C 24.40625 4.960938 24.460938 4.980469 26.484375 4.980469 C 28.09375 4.980469 28.242188 5 28.417969 5.175781 C 28.601562 5.359375 28.613281 5.5 28.613281 7.570312 L 28.613281 9.765625 L 13.671875 9.765625 L 13.671875 7.53125 C 13.671875 5.320312 13.671875 5.28125 13.886719 5.136719 C 14.0625 5.007812 14.421875 4.980469 15.800781 4.980469 C 16.75 4.980469 17.578125 4.941406 17.675781 4.882812 C 17.792969 4.824219 17.949219 4.484375 18.117188 3.964844 C 18.320312 3.28125 18.445312 3.046875 18.867188 2.585938 C 19.785156 1.582031 20.8125 1.289062 22.070312 1.679688 Z M 12.1875 7.492188 L 12.21875 8.398438 L 9.160156 8.398438 C 6.40625 8.398438 6.0625 8.417969 5.710938 8.585938 C 5.242188 8.796875 5.039062 9.015625 4.835938 9.5 C 4.707031 9.8125 4.6875 11.84375 4.6875 27.558594 C 4.6875 44.578125 4.695312 45.28125 4.875 45.664062 C 5.085938 46.132812 5.460938 46.445312 5.957031 46.582031 C 6.203125 46.648438 11.40625 46.671875 21.359375 46.660156 L 36.375 46.632812 L 36.71875 46.414062 C 36.914062 46.296875 37.167969 46.023438 37.285156 45.820312 C 37.480469 45.460938 37.5 45.304688 37.5 43.757812 L 37.5 42.089844 L 38.769531 42.089844 L 38.769531 45.1875 C 38.769531 46.894531 38.730469 48.351562 38.691406 48.417969 C 38.625 48.515625 35.039062 48.535156 21.085938 48.515625 L 3.5625 48.484375 L 3.535156 27.636719 C 3.523438 16.171875 3.535156 6.726562 3.5625 6.660156 C 3.59375 6.5625 4.511719 6.542969 7.882812 6.5625 L 12.15625 6.59375 Z M 38.710938 6.699219 C 38.742188 6.789062 38.769531 10.320312 38.769531 14.5625 L 38.769531 22.265625 L 37.609375 22.265625 L 37.578125 15.984375 C 37.546875 8.914062 37.578125 9.238281 36.789062 8.710938 L 36.398438 8.445312 L 33.234375 8.417969 L 30.078125 8.390625 L 30.078125 6.542969 L 34.367188 6.542969 C 38.183594 6.542969 38.664062 6.5625 38.710938 6.699219 Z M 12.1875 10.410156 C 12.246094 11.359375 11.4375 11.28125 21.007812 11.308594 C 28.390625 11.328125 29.433594 11.308594 29.6875 11.179688 C 29.980469 11.023438 30.046875 10.867188 30.097656 10.253906 L 30.125 9.914062 L 32.859375 9.882812 C 34.367188 9.875 35.695312 9.882812 35.820312 9.914062 L 36.035156 9.960938 L 36.015625 16.230469 L 35.984375 22.492188 L 35.398438 22.65625 C 32.609375 23.445312 30.109375 25.617188 28.992188 28.222656 C 28.429688 29.5625 28.203125 30.65625 28.203125 32.128906 C 28.195312 34.601562 28.867188 36.503906 30.460938 38.507812 C 31.699219 40.070312 33.5625 41.21875 35.917969 41.855469 C 36.007812 41.882812 36.035156 42.296875 36.035156 43.496094 C 36.035156 44.863281 36.015625 45.109375 35.878906 45.15625 C 35.59375 45.265625 6.542969 45.226562 6.335938 45.117188 C 6.152344 45.007812 6.152344 44.71875 6.152344 27.539062 C 6.152344 11.007812 6.164062 10.058594 6.328125 9.96875 C 6.4375 9.902344 7.519531 9.875 9.328125 9.890625 L 12.15625 9.914062 Z M 39.796875 23.984375 C 41.308594 24.277344 42.675781 25 43.875 26.164062 C 44.980469 27.21875 45.683594 28.398438 46.152344 29.953125 C 46.515625 31.132812 46.542969 33.046875 46.21875 34.226562 C 45.429688 37.140625 43.328125 39.34375 40.527344 40.214844 C 35.800781 41.671875 30.851562 38.742188 29.835938 33.867188 C 29.757812 33.496094 29.6875 32.714844 29.6875 32.140625 C 29.6875 27.910156 32.9375 24.289062 37.109375 23.847656 C 38.078125 23.75 38.71875 23.789062 39.796875 23.984375 Z M 39.796875 23.984375 "/>
<path style=" stroke:none;fill-rule:nonzero;fill:rgb(0%,0%,0%);fill-opacity:1;" d="M 20.359375 2.375 C 18.507812 3.117188 18.078125 5.265625 19.511719 6.5625 C 20.742188 7.664062 22.765625 7.207031 23.417969 5.671875 C 23.601562 5.234375 23.613281 4.367188 23.445312 3.867188 C 23.28125 3.390625 22.734375 2.773438 22.226562 2.519531 C 21.757812 2.273438 20.78125 2.195312 20.359375 2.375 Z M 21.414062 3.796875 C 22.441406 4.1875 22.195312 5.664062 21.113281 5.664062 C 20.125 5.664062 19.804688 4.335938 20.683594 3.867188 C 20.996094 3.691406 21.101562 3.679688 21.414062 3.796875 Z M 21.414062 3.796875 "/>
<path style=" stroke:none;fill-rule:nonzero;fill:rgb(0%,0%,0%);fill-opacity:1;" d="M 9.765625 14.328125 C 9.25 14.523438 9.09375 15.234375 9.484375 15.585938 C 9.679688 15.761719 10.019531 15.773438 21.164062 15.773438 L 32.636719 15.773438 L 32.820312 15.539062 C 33.054688 15.242188 33.054688 14.835938 32.820312 14.539062 L 32.636719 14.304688 L 21.269531 14.289062 C 15.03125 14.277344 9.84375 14.296875 9.765625 14.328125 Z M 9.765625 14.328125 "/>
<path style=" stroke:none;fill-rule:nonzero;fill:rgb(0%,0%,0%);fill-opacity:1;" d="M 9.765625 20.773438 C 9.21875 20.976562 9.082031 21.710938 9.53125 22.0625 C 9.796875 22.265625 9.804688 22.265625 21.085938 22.265625 C 29.953125 22.265625 32.421875 22.234375 32.617188 22.140625 C 32.910156 21.992188 33.054688 21.609375 32.96875 21.25 C 32.832031 20.683594 33.261719 20.703125 21.074219 20.710938 C 14.929688 20.710938 9.84375 20.742188 9.765625 20.773438 Z M 9.765625 20.773438 "/>
<path style=" stroke:none;fill-rule:nonzero;fill:rgb(0%,0%,0%);fill-opacity:1;" d="M 9.445312 27.421875 C 9.179688 27.714844 9.226562 28.273438 9.539062 28.507812 C 9.796875 28.710938 9.804688 28.710938 18.367188 28.691406 C 27.792969 28.664062 27.179688 28.703125 27.304688 28.078125 C 27.34375 27.859375 27.304688 27.703125 27.148438 27.507812 L 26.945312 27.246094 L 18.273438 27.246094 C 10 27.246094 9.589844 27.257812 9.445312 27.421875 Z M 9.445312 27.421875 "/>
<path style=" stroke:none;fill-rule:nonzero;fill:rgb(0%,0%,0%);fill-opacity:1;" d="M 9.492188 33.847656 C 9.171875 34.070312 9.1875 34.6875 9.53125 34.953125 C 9.796875 35.15625 9.84375 35.15625 18.328125 35.15625 L 26.867188 35.15625 L 27.101562 34.914062 C 27.390625 34.617188 27.414062 34.289062 27.140625 33.945312 L 26.945312 33.691406 L 18.320312 33.691406 C 10.683594 33.691406 9.6875 33.710938 9.492188 33.847656 Z M 9.492188 33.847656 "/>
<path style=" stroke:none;fill-rule:nonzero;fill:rgb(0%,0%,0%);fill-opacity:1;" d="M 9.472656 40.332031 C 9.179688 40.625 9.210938 41.140625 9.53125 41.398438 C 9.796875 41.601562 9.824219 41.601562 19.472656 41.601562 C 26.921875 41.59375 29.1875 41.570312 29.304688 41.476562 C 29.5625 41.28125 29.695312 40.9375 29.628906 40.671875 C 29.492188 40.109375 30.019531 40.136719 19.414062 40.136719 C 9.796875 40.136719 9.667969 40.136719 9.472656 40.332031 Z M 9.472656 40.332031 "/>
<path style=" stroke:none;fill-rule:nonzero;fill:rgb(0%,0%,0%);fill-opacity:1;" d="M 39.289062 31.074219 L 36.335938 34.023438 L 35.117188 32.832031 C 34.023438 31.757812 33.867188 31.640625 33.554688 31.640625 C 33.105469 31.640625 32.8125 31.921875 32.8125 32.34375 C 32.8125 32.609375 33.007812 32.84375 34.257812 34.109375 C 35.664062 35.527344 36.046875 35.839844 36.398438 35.839844 C 36.492188 35.839844 38.046875 34.367188 39.914062 32.5 C 42.949219 29.460938 43.261719 29.121094 43.261719 28.835938 C 43.261719 28.417969 42.96875 28.125 42.546875 28.125 C 42.265625 28.125 41.945312 28.417969 39.289062 31.074219 Z M 39.289062 31.074219 "/>
</g>
</svg>
