<?xml version="1.0" encoding="UTF-8"?>
<svg xmlns="http://www.w3.org/2000/svg" xmlns:xlink="http://www.w3.org/1999/xlink" width="50px" height="px" viewBox="0 0 50 50" version="1.1">
<g id="surface1">
<path style=" stroke:none;fill-rule:nonzero;fill:rgb(0%,0%,0%);fill-opacity:1;" d="M 1.660156 1.503906 C 1.035156 1.671875 0.539062 2.078125 0.242188 2.664062 L 0 3.164062 L 0 7.851562 C 0 10.859375 0.0390625 12.6875 0.109375 12.921875 C 0.164062 13.125 0.371094 13.46875 0.554688 13.679688 C 1.203125 14.394531 1.230469 14.394531 3.953125 14.453125 L 6.398438 14.5 L 6.425781 31.257812 L 6.445312 48.015625 L 6.6875 48.273438 C 7.101562 48.679688 7.636719 48.679688 8.046875 48.273438 L 8.300781 48.027344 L 8.320312 29.355469 L 8.351562 10.695312 L 8.554688 10.253906 C 8.808594 9.707031 9.433594 9.132812 9.929688 8.992188 C 10.1875 8.914062 14.992188 8.886719 25.175781 8.886719 L 40.039062 8.886719 L 39.835938 9.289062 C 39.34375 10.253906 39.355469 9.65625 39.355469 29.414062 C 39.355469 42.714844 39.382812 47.910156 39.460938 48.078125 C 39.65625 48.515625 40.292969 48.691406 40.761719 48.445312 C 41.289062 48.164062 41.257812 49.25 41.308594 31.203125 L 41.359375 14.5 L 44.921875 14.453125 C 48.808594 14.40625 48.75 14.40625 49.355469 13.808594 C 49.96875 13.183594 49.953125 13.40625 49.980469 8.066406 L 50.007812 3.195312 L 49.757812 2.675781 C 49.453125 2.070312 48.964844 1.671875 48.300781 1.492188 C 47.597656 1.308594 2.324219 1.320312 1.660156 1.503906 Z M 47.890625 3.378906 C 48.027344 3.429688 48.046875 3.925781 48.046875 7.898438 C 48.046875 11.242188 48.015625 12.390625 47.929688 12.480469 C 47.84375 12.570312 46.960938 12.597656 44.5625 12.597656 L 41.308594 12.597656 L 41.308594 11.726562 C 41.308594 10.332031 41.671875 9.601562 42.597656 9.140625 C 43.007812 8.9375 43.242188 8.886719 43.847656 8.886719 C 45.058594 8.886719 45.507812 8.613281 45.507812 7.882812 C 45.507812 7.5 45.175781 7.070312 44.804688 6.984375 C 44.6875 6.953125 35.625 6.945312 24.6875 6.953125 L 4.785156 6.984375 L 4.53125 7.246094 C 4.171875 7.609375 4.171875 8.210938 4.53125 8.574219 C 4.773438 8.828125 4.84375 8.835938 5.945312 8.867188 L 7.109375 8.90625 L 6.933594 9.210938 C 6.621094 9.734375 6.445312 10.625 6.445312 11.640625 L 6.445312 12.597656 L 4.316406 12.597656 C 2.792969 12.597656 2.15625 12.570312 2.070312 12.480469 C 1.894531 12.304688 1.90625 3.457031 2.078125 3.390625 C 2.257812 3.3125 47.703125 3.3125 47.890625 3.378906 Z M 47.890625 3.378906 "/>
<path style=" stroke:none;fill-rule:nonzero;fill:rgb(0%,0%,0%);fill-opacity:1;" d="M 12.882812 18.054688 C 12.492188 18.445312 12.492188 18.925781 12.882812 19.355469 L 13.164062 19.679688 L 18.914062 19.679688 C 23.515625 19.679688 24.707031 19.648438 24.882812 19.550781 C 25.234375 19.34375 25.429688 18.808594 25.292969 18.40625 C 25.078125 17.742188 25.332031 17.773438 18.945312 17.773438 L 13.164062 17.773438 Z M 12.882812 18.054688 "/>
<path style=" stroke:none;fill-rule:nonzero;fill:rgb(0%,0%,0%);fill-opacity:1;" d="M 27.976562 18.007812 C 27.519531 18.46875 27.558594 19.101562 28.066406 19.472656 C 28.320312 19.667969 28.457031 19.679688 31.296875 19.679688 C 34.160156 19.679688 34.277344 19.667969 34.539062 19.472656 C 35.046875 19.09375 35.085938 18.476562 34.617188 18.007812 L 34.382812 17.773438 L 28.210938 17.773438 Z M 27.976562 18.007812 "/>
<path style=" stroke:none;fill-rule:nonzero;fill:rgb(0%,0%,0%);fill-opacity:1;" d="M 13.328125 23.40625 C 13.222656 23.4375 13.015625 23.574219 12.871094 23.710938 C 12.480469 24.070312 12.492188 24.617188 12.882812 25.007812 L 13.164062 25.292969 L 18.945312 25.292969 C 25.34375 25.292969 25.078125 25.320312 25.292969 24.648438 C 25.449219 24.171875 25.1875 23.632812 24.707031 23.46875 C 24.453125 23.378906 22.898438 23.351562 18.945312 23.359375 C 15.96875 23.359375 13.4375 23.378906 13.328125 23.40625 Z M 13.328125 23.40625 "/>
<path style=" stroke:none;fill-rule:nonzero;fill:rgb(0%,0%,0%);fill-opacity:1;" d="M 28.378906 23.4375 C 27.578125 23.691406 27.402344 24.589844 28.066406 25.117188 C 28.25 25.273438 28.585938 25.292969 31.328125 25.292969 L 34.382812 25.292969 L 34.617188 25.058594 C 35.085938 24.589844 35.046875 23.976562 34.539062 23.59375 C 34.277344 23.398438 34.140625 23.390625 31.464844 23.367188 C 29.921875 23.359375 28.535156 23.390625 28.378906 23.4375 Z M 28.378906 23.4375 "/>
<path style=" stroke:none;fill-rule:nonzero;fill:rgb(0%,0%,0%);fill-opacity:1;" d="M 13.3125 29.070312 C 13.195312 29.09375 12.988281 29.226562 12.851562 29.367188 C 12.480469 29.726562 12.5 30.292969 12.882812 30.671875 L 13.164062 30.957031 L 18.886719 30.957031 C 22.949219 30.957031 24.667969 30.929688 24.84375 30.851562 C 24.980469 30.78125 25.15625 30.585938 25.253906 30.390625 C 25.460938 29.960938 25.351562 29.539062 24.96875 29.257812 C 24.695312 29.054688 24.617188 29.054688 19.109375 29.042969 C 16.035156 29.03125 13.429688 29.042969 13.3125 29.070312 Z M 13.3125 29.070312 "/>
<path style=" stroke:none;fill-rule:nonzero;fill:rgb(0%,0%,0%);fill-opacity:1;" d="M 28.367188 29.070312 C 27.578125 29.277344 27.421875 30.449219 28.132812 30.8125 C 28.535156 31.023438 34.0625 31.023438 34.460938 30.820312 C 35.007812 30.539062 35.109375 29.851562 34.679688 29.375 L 34.394531 29.054688 L 31.476562 29.03125 C 29.875 29.03125 28.476562 29.042969 28.367188 29.070312 Z M 28.367188 29.070312 "/>
<path style=" stroke:none;fill-rule:nonzero;fill:rgb(0%,0%,0%);fill-opacity:1;" d="M 9.773438 46.984375 C 9.375 47.382812 9.367188 47.820312 9.757812 48.261719 L 10.039062 48.585938 L 11.492188 48.613281 C 13.183594 48.640625 13.523438 48.546875 13.75 47.9375 C 13.867188 47.625 13.867188 47.539062 13.71875 47.234375 C 13.632812 47.050781 13.457031 46.855469 13.320312 46.789062 C 13.171875 46.71875 12.492188 46.679688 11.570312 46.679688 L 10.078125 46.679688 Z M 9.773438 46.984375 "/>
<path style=" stroke:none;fill-rule:nonzero;fill:rgb(0%,0%,0%);fill-opacity:1;" d="M 15.957031 46.855469 C 15.460938 47.257812 15.398438 47.804688 15.8125 48.261719 L 16.09375 48.585938 L 17.441406 48.625 C 19.03125 48.664062 19.453125 48.5625 19.726562 48.117188 C 19.960938 47.734375 19.960938 47.625 19.773438 47.21875 C 19.539062 46.738281 19.296875 46.679688 17.648438 46.679688 C 16.386719 46.679688 16.132812 46.710938 15.957031 46.855469 Z M 15.957031 46.855469 "/>
<path style=" stroke:none;fill-rule:nonzero;fill:rgb(0%,0%,0%);fill-opacity:1;" d="M 22.011719 46.855469 C 21.515625 47.257812 21.453125 47.804688 21.867188 48.261719 L 22.148438 48.585938 L 23.554688 48.613281 C 25.1875 48.652344 25.566406 48.554688 25.828125 48.039062 C 25.96875 47.773438 25.976562 47.65625 25.890625 47.34375 C 25.710938 46.757812 25.460938 46.679688 23.710938 46.679688 C 22.441406 46.679688 22.1875 46.710938 22.011719 46.855469 Z M 22.011719 46.855469 "/>
<path style=" stroke:none;fill-rule:nonzero;fill:rgb(0%,0%,0%);fill-opacity:1;" d="M 28.066406 46.855469 C 27.558594 47.257812 27.53125 47.921875 27.988281 48.351562 C 28.234375 48.574219 28.28125 48.585938 29.785156 48.585938 C 31.203125 48.585938 31.359375 48.5625 31.609375 48.378906 C 31.960938 48.117188 32.101562 47.664062 31.933594 47.265625 C 31.71875 46.757812 31.4375 46.679688 29.765625 46.679688 C 28.496094 46.679688 28.242188 46.710938 28.066406 46.855469 Z M 28.066406 46.855469 "/>
<path style=" stroke:none;fill-rule:nonzero;fill:rgb(0%,0%,0%);fill-opacity:1;" d="M 34.210938 46.796875 C 34.09375 46.855469 33.925781 47.050781 33.835938 47.234375 C 33.710938 47.507812 33.703125 47.625 33.789062 47.910156 C 33.992188 48.515625 34.210938 48.585938 35.96875 48.585938 L 37.519531 48.585938 L 37.804688 48.261719 C 38.195312 47.820312 38.183594 47.382812 37.78125 46.984375 L 37.480469 46.679688 L 35.957031 46.6875 C 35.085938 46.6875 34.328125 46.738281 34.210938 46.796875 Z M 34.210938 46.796875 "/>
</g>
</svg>
