<?xml version="1.0" encoding="UTF-8"?>
<svg xmlns="http://www.w3.org/2000/svg" xmlns:xlink="http://www.w3.org/1999/xlink" width="50px" height="px" viewBox="0 0 50 50" version="1.1">
<g id="surface1">
<path style=" stroke:none;fill-rule:nonzero;fill:rgb(0%,0%,0%);fill-opacity:1;" d="M 2.636719 0.0859375 C 1.875 0.320312 1.101562 1.054688 0.898438 1.738281 C 0.820312 2 0.78125 3.183594 0.78125 5.449219 L 0.78125 8.78125 L 1.035156 8.976562 C 1.453125 9.304688 1.875 9.226562 2.101562 8.78125 C 2.21875 8.554688 2.246094 7.929688 2.246094 5.332031 L 2.246094 2.148438 L 2.53125 1.835938 L 2.8125 1.515625 L 40.15625 1.515625 L 40.4375 1.835938 L 40.722656 2.148438 L 40.722656 20.722656 L 41.015625 21.015625 C 41.257812 21.25 41.367188 21.296875 41.582031 21.242188 C 41.726562 21.210938 41.921875 21.101562 42.011719 21.023438 C 42.179688 20.878906 42.1875 20.304688 42.1875 11.492188 C 42.1875 4.589844 42.15625 2.023438 42.070312 1.738281 C 41.921875 1.25 41.308594 0.546875 40.78125 0.265625 L 40.382812 0.046875 L 21.632812 0.03125 C 11.320312 0.0195312 2.773438 0.046875 2.636719 0.0859375 Z M 2.636719 0.0859375 "/>
<path style=" stroke:none;fill-rule:nonzero;fill:rgb(0%,0%,0%);fill-opacity:1;" d="M 4.226562 4.492188 C 4.109375 4.539062 3.976562 4.667969 3.914062 4.773438 C 3.847656 4.902344 3.808594 5.996094 3.808594 7.859375 L 3.808594 10.75 L 4.054688 10.984375 C 4.179688 11.125 4.40625 11.230469 4.539062 11.230469 C 4.679688 11.230469 4.902344 11.125 5.03125 10.984375 C 5.253906 10.773438 5.273438 10.671875 5.273438 9.8125 L 5.273438 8.886719 L 5.820312 8.886719 C 6.648438 8.886719 7.117188 8.710938 7.617188 8.203125 C 8.339844 7.480469 8.496094 6.582031 8.046875 5.683594 C 7.578125 4.746094 6.828125 4.394531 5.332031 4.40625 C 4.84375 4.40625 4.34375 4.445312 4.226562 4.492188 Z M 6.53125 6.113281 C 6.914062 6.4375 6.933594 6.835938 6.59375 7.179688 C 6.398438 7.382812 6.257812 7.421875 5.8125 7.421875 L 5.273438 7.421875 L 5.273438 5.859375 L 5.75 5.859375 C 6.132812 5.859375 6.296875 5.917969 6.53125 6.113281 Z M 6.53125 6.113281 "/>
<path style=" stroke:none;fill-rule:nonzero;fill:rgb(0%,0%,0%);fill-opacity:1;" d="M 9.328125 4.640625 L 9.082031 4.875 L 9.082031 10.828125 L 9.335938 11.023438 C 9.65625 11.28125 9.96875 11.289062 10.265625 11.046875 C 10.460938 10.890625 10.5 10.75 10.546875 10.058594 L 10.59375 9.25 L 11.269531 10.019531 C 12.195312 11.085938 12.375 11.230469 12.6875 11.230469 C 13.039062 11.230469 13.378906 10.859375 13.378906 10.476562 C 13.378906 10.253906 13.222656 10.007812 12.695312 9.414062 C 12.324219 8.992188 12.011719 8.613281 12.011719 8.574219 C 12.011719 8.535156 12.089844 8.484375 12.1875 8.457031 C 12.460938 8.367188 12.976562 7.820312 13.195312 7.402344 C 13.417969 6.972656 13.4375 6.191406 13.242188 5.722656 C 13.039062 5.226562 12.429688 4.707031 11.882812 4.539062 C 11.601562 4.453125 11.007812 4.394531 10.476562 4.394531 C 9.640625 4.394531 9.539062 4.414062 9.328125 4.640625 Z M 11.660156 6.0625 C 12.226562 6.515625 11.804688 7.226562 10.976562 7.226562 L 10.546875 7.226562 L 10.546875 5.859375 L 10.976562 5.859375 C 11.257812 5.859375 11.484375 5.929688 11.660156 6.0625 Z M 11.660156 6.0625 "/>
<path style=" stroke:none;fill-rule:nonzero;fill:rgb(0%,0%,0%);fill-opacity:1;" d="M 16.40625 4.550781 C 14.335938 5.097656 13.300781 7.390625 14.25 9.316406 C 15.644531 12.15625 19.785156 11.6875 20.566406 8.601562 C 21.007812 6.84375 19.890625 5.007812 18.09375 4.539062 C 17.414062 4.367188 17.101562 4.367188 16.40625 4.550781 Z M 17.820312 5.96875 C 18.359375 6.113281 18.992188 6.765625 19.140625 7.3125 C 19.484375 8.59375 18.398438 9.875 17.078125 9.746094 C 16.453125 9.679688 15.867188 9.277344 15.546875 8.691406 C 15.109375 7.871094 15.398438 6.71875 16.171875 6.25 C 16.789062 5.867188 17.195312 5.800781 17.820312 5.96875 Z M 17.820312 5.96875 "/>
<path style=" stroke:none;fill-rule:nonzero;fill:rgb(0%,0%,0%);fill-opacity:1;" d="M 23.085938 4.511719 C 22.695312 4.695312 22.65625 4.980469 22.65625 7.382812 C 22.65625 9.953125 22.664062 9.921875 21.984375 9.5625 C 21.632812 9.382812 21.53125 9.367188 21.296875 9.472656 C 21.132812 9.539062 20.957031 9.71875 20.890625 9.882812 C 20.734375 10.253906 20.890625 10.585938 21.375 10.90625 C 22.246094 11.492188 23.378906 11.21875 23.898438 10.304688 C 24.109375 9.921875 24.121094 9.824219 24.121094 7.390625 L 24.121094 4.875 L 23.875 4.640625 C 23.625 4.375 23.417969 4.34375 23.085938 4.511719 Z M 23.085938 4.511719 "/>
<path style=" stroke:none;fill-rule:nonzero;fill:rgb(0%,0%,0%);fill-opacity:1;" d="M 31.875 4.53125 C 30.867188 4.785156 30.058594 5.460938 29.570312 6.4375 C 29.257812 7.070312 29.25 8.523438 29.5625 9.199219 C 29.851562 9.84375 30.554688 10.554688 31.21875 10.890625 C 31.710938 11.132812 31.90625 11.171875 32.617188 11.179688 C 33.328125 11.179688 33.523438 11.140625 34.003906 10.90625 C 35.019531 10.410156 35.371094 9.640625 34.804688 9.1875 C 34.445312 8.90625 34.277344 8.925781 33.757812 9.335938 C 32.429688 10.371094 30.625 9.316406 30.78125 7.609375 C 30.917969 6.269531 32.335938 5.527344 33.613281 6.132812 C 34.179688 6.398438 34.289062 6.398438 34.609375 6.140625 C 34.914062 5.90625 34.960938 5.382812 34.695312 5.117188 C 34.160156 4.578125 32.792969 4.296875 31.875 4.53125 Z M 31.875 4.53125 "/>
<path style=" stroke:none;fill-rule:nonzero;fill:rgb(0%,0%,0%);fill-opacity:1;" d="M 35.8125 4.589844 C 35.617188 4.746094 35.546875 4.882812 35.546875 5.136719 C 35.546875 5.644531 35.820312 5.859375 36.476562 5.859375 L 37.011719 5.859375 L 37.011719 10.828125 L 37.265625 11.023438 C 37.585938 11.28125 37.898438 11.289062 38.195312 11.046875 C 38.429688 10.859375 38.429688 10.851562 38.457031 8.359375 L 38.484375 5.859375 L 39.015625 5.859375 C 39.460938 5.859375 39.5625 5.820312 39.734375 5.605469 C 39.992188 5.28125 40 4.96875 39.757812 4.679688 C 39.570312 4.453125 39.523438 4.445312 37.820312 4.414062 C 36.164062 4.382812 36.0625 4.394531 35.8125 4.589844 Z M 35.8125 4.589844 "/>
<path style=" stroke:none;fill-rule:nonzero;fill:rgb(0%,0%,0%);fill-opacity:1;" d="M 25.554688 4.609375 C 25.46875 4.679688 25.351562 4.863281 25.292969 5.007812 C 25.164062 5.382812 25.15625 10.34375 25.292969 10.703125 C 25.476562 11.179688 25.625 11.21875 27.109375 11.230469 C 28.417969 11.230469 28.484375 11.21875 28.691406 11.007812 C 28.992188 10.683594 28.976562 10.226562 28.652344 9.96875 C 28.429688 9.796875 28.25 9.765625 27.53125 9.765625 L 26.660156 9.765625 L 26.660156 8.59375 L 27.390625 8.59375 C 28.234375 8.59375 28.554688 8.476562 28.710938 8.117188 C 28.828125 7.820312 28.71875 7.402344 28.496094 7.257812 C 28.429688 7.21875 28 7.15625 27.539062 7.128906 L 26.710938 7.078125 L 26.679688 6.515625 L 26.648438 5.957031 L 27.519531 5.957031 C 28.25 5.957031 28.429688 5.929688 28.652344 5.75 C 28.976562 5.5 29.003906 4.980469 28.710938 4.6875 C 28.535156 4.511719 28.390625 4.492188 27.117188 4.492188 C 26.152344 4.492188 25.671875 4.53125 25.554688 4.609375 Z M 25.554688 4.609375 "/>
<path style=" stroke:none;fill-rule:nonzero;fill:rgb(0%,0%,0%);fill-opacity:1;" d="M 0.996094 11.359375 L 0.78125 11.59375 L 0.800781 29.210938 L 0.828125 46.828125 L 1.140625 47.492188 C 1.515625 48.261719 2.257812 49.082031 2.910156 49.445312 C 3.953125 50.007812 3.757812 50 13.210938 50 L 21.882812 50 L 22.117188 49.757812 C 22.429688 49.453125 22.429688 49.082031 22.117188 48.78125 L 21.882812 48.535156 L 8.203125 48.535156 L 8.496094 48.078125 C 9.070312 47.179688 9.199219 46.660156 9.257812 45.078125 C 9.304688 43.664062 9.304688 43.613281 9.578125 43.320312 L 9.84375 43.015625 L 47.1875 43.015625 L 47.480469 43.351562 L 47.773438 43.671875 L 47.734375 45.15625 C 47.703125 46.5625 47.695312 46.648438 47.441406 47.089844 C 47.078125 47.695312 46.492188 48.171875 45.890625 48.367188 C 45.4375 48.515625 44.394531 48.535156 35.085938 48.535156 L 24.796875 48.535156 L 24.5625 48.78125 C 24.25 49.082031 24.25 49.453125 24.5625 49.757812 L 24.796875 50 L 35.125 50 C 46.40625 50 46.035156 50.019531 47.089844 49.445312 C 47.742188 49.082031 48.484375 48.261719 48.859375 47.492188 C 49.160156 46.84375 49.171875 46.789062 49.199219 45.273438 C 49.238281 43.445312 49.160156 43.054688 48.601562 42.421875 C 47.859375 41.570312 47.78125 41.554688 44.804688 41.523438 L 42.1875 41.492188 L 42.1875 40.371094 L 42.804688 40.410156 C 43.90625 40.476562 44.40625 40.046875 45.410156 38.15625 C 45.742188 37.539062 45.8125 37.304688 45.8125 36.875 C 45.8125 36.007812 45.398438 35.390625 44.453125 34.863281 L 44.082031 34.648438 L 44.082031 32.246094 L 44.453125 32.03125 C 45.410156 31.492188 45.800781 30.90625 45.800781 30.019531 C 45.800781 29.5625 45.734375 29.34375 45.398438 28.71875 C 44.40625 26.855469 43.90625 26.414062 42.804688 26.484375 L 42.1875 26.523438 L 42.1875 25.078125 C 42.1875 23.757812 42.167969 23.613281 41.992188 23.4375 C 41.726562 23.171875 41.203125 23.183594 40.957031 23.445312 C 40.789062 23.632812 40.773438 23.835938 40.742188 25.253906 C 40.722656 26.132812 40.695312 26.855469 40.683594 26.855469 C 40.664062 26.855469 40.390625 26.699219 40.078125 26.515625 C 39.757812 26.320312 39.40625 26.140625 39.289062 26.113281 C 39.082031 26.054688 39.0625 25.996094 39.0625 25.449219 C 39.0625 24.648438 38.914062 24.1875 38.546875 23.757812 C 38.027344 23.164062 37.636719 23.046875 36.171875 23.046875 C 35.449219 23.046875 34.746094 23.09375 34.5625 23.164062 C 33.652344 23.476562 33.203125 24.171875 33.203125 25.273438 L 33.203125 25.976562 L 32.597656 26.28125 C 32.257812 26.445312 31.796875 26.71875 31.5625 26.875 L 31.140625 27.167969 L 30.46875 26.816406 C 29.96875 26.554688 29.6875 26.464844 29.335938 26.464844 C 28.769531 26.464844 28.171875 26.71875 27.820312 27.109375 C 27.453125 27.507812 26.476562 29.277344 26.40625 29.667969 C 26.242188 30.539062 26.679688 31.375 27.570312 31.894531 L 28.171875 32.257812 L 28.171875 34.640625 L 27.570312 35 C 26.679688 35.515625 26.242188 36.359375 26.40625 37.226562 C 26.476562 37.617188 27.453125 39.382812 27.820312 39.785156 C 28.171875 40.175781 28.769531 40.429688 29.335938 40.429688 C 29.6875 40.429688 29.96875 40.34375 30.46875 40.078125 L 31.140625 39.726562 L 31.5625 40.019531 C 31.796875 40.175781 32.257812 40.449219 32.597656 40.617188 C 33.132812 40.890625 33.203125 40.957031 33.203125 41.210938 L 33.203125 41.503906 L 21.414062 41.523438 L 9.617188 41.554688 L 9.21875 41.765625 C 8.78125 42 8.15625 42.648438 7.988281 43.046875 C 7.929688 43.195312 7.851562 43.992188 7.8125 44.835938 C 7.765625 46.230469 7.734375 46.398438 7.480469 46.90625 C 6.476562 48.976562 3.730469 49.070312 2.558594 47.089844 L 2.296875 46.632812 L 2.246094 29.070312 L 2.195312 11.503906 L 1.960938 11.320312 C 1.648438 11.0625 1.25 11.085938 0.996094 11.359375 Z M 37.441406 24.726562 C 37.558594 24.890625 37.597656 25.195312 37.597656 25.878906 C 37.597656 26.726562 37.617188 26.835938 37.820312 27.023438 C 37.9375 27.128906 38.144531 27.257812 38.28125 27.296875 C 38.742188 27.429688 39.796875 28.027344 40.273438 28.417969 C 40.527344 28.632812 40.828125 28.808594 40.9375 28.808594 C 41.046875 28.808594 41.515625 28.601562 41.984375 28.351562 C 43.105469 27.753906 43.164062 27.773438 43.828125 28.90625 C 44.5625 30.148438 44.53125 30.273438 43.476562 30.90625 C 43.027344 31.171875 42.617188 31.476562 42.558594 31.570312 C 42.5 31.6875 42.5 32.023438 42.578125 32.585938 C 42.65625 33.222656 42.65625 33.652344 42.578125 34.296875 C 42.441406 35.359375 42.453125 35.390625 43.507812 36.015625 C 44.53125 36.632812 44.550781 36.757812 43.828125 37.988281 C 43.164062 39.121094 43.105469 39.140625 41.984375 38.546875 C 41.515625 38.289062 41.046875 38.085938 40.9375 38.085938 C 40.828125 38.085938 40.527344 38.261719 40.273438 38.484375 C 40.007812 38.703125 39.375 39.082031 38.867188 39.328125 C 37.578125 39.953125 37.597656 39.929688 37.597656 40.789062 L 37.597656 41.503906 L 34.667969 41.503906 L 34.667969 40.890625 C 34.667969 40.019531 34.550781 39.863281 33.640625 39.484375 C 33.210938 39.304688 32.539062 38.914062 32.140625 38.625 C 31.738281 38.328125 31.328125 38.085938 31.21875 38.085938 C 31.113281 38.085938 30.683594 38.289062 30.265625 38.535156 C 29.179688 39.171875 29.09375 39.140625 28.398438 37.988281 C 28.085938 37.480469 27.832031 36.972656 27.832031 36.855469 C 27.832031 36.601562 28.105469 36.359375 28.925781 35.890625 C 29.679688 35.460938 29.804688 35.226562 29.679688 34.5625 C 29.640625 34.328125 29.601562 33.820312 29.601562 33.445312 C 29.601562 33.066406 29.640625 32.570312 29.679688 32.335938 C 29.804688 31.671875 29.679688 31.4375 28.925781 31.007812 C 28.105469 30.539062 27.832031 30.292969 27.832031 30.039062 C 27.832031 29.921875 28.085938 29.414062 28.398438 28.90625 C 29.09375 27.753906 29.160156 27.734375 30.253906 28.359375 C 30.671875 28.601562 31.113281 28.808594 31.21875 28.808594 C 31.328125 28.808594 31.738281 28.5625 32.140625 28.273438 C 32.539062 27.976562 33.210938 27.585938 33.640625 27.414062 C 34.171875 27.1875 34.460938 27 34.539062 26.84375 C 34.609375 26.710938 34.667969 26.242188 34.667969 25.742188 C 34.667969 24.523438 34.679688 24.511719 36.140625 24.511719 C 37.21875 24.511719 37.304688 24.523438 37.441406 24.726562 Z M 40.722656 40.773438 L 40.722656 41.503906 L 39.0625 41.503906 L 39.0625 41.179688 C 39.0625 40.90625 39.109375 40.851562 39.484375 40.695312 C 39.71875 40.605469 40.058594 40.421875 40.242188 40.28125 C 40.421875 40.15625 40.605469 40.046875 40.65625 40.039062 C 40.695312 40.039062 40.722656 40.371094 40.722656 40.773438 Z M 40.722656 40.773438 "/>
<path style=" stroke:none;fill-rule:nonzero;fill:rgb(0%,0%,0%);fill-opacity:1;" d="M 34.757812 29.914062 C 33.757812 30.332031 33.066406 30.984375 32.625 31.921875 C 32.414062 32.402344 32.375 32.597656 32.375 33.445312 C 32.375 34.355469 32.390625 34.472656 32.6875 35.070312 C 33.066406 35.851562 33.769531 36.53125 34.550781 36.894531 C 35.039062 37.128906 35.226562 37.15625 36.132812 37.15625 C 37.070312 37.15625 37.207031 37.128906 37.742188 36.875 C 38.867188 36.320312 39.628906 35.28125 39.851562 34.003906 C 40.125 32.453125 39.21875 30.742188 37.742188 30.03125 C 37.257812 29.796875 37.011719 29.746094 36.230469 29.71875 C 35.429688 29.6875 35.226562 29.71875 34.757812 29.914062 Z M 37.0625 31.335938 C 37.921875 31.726562 38.40625 32.5 38.40625 33.445312 C 38.40625 34.765625 37.429688 35.734375 36.101562 35.742188 C 35.148438 35.742188 34.421875 35.292969 34.023438 34.421875 C 33.46875 33.242188 34.015625 31.804688 35.203125 31.289062 C 35.632812 31.101562 36.601562 31.125 37.0625 31.335938 Z M 37.0625 31.335938 "/>
<path style=" stroke:none;fill-rule:nonzero;fill:rgb(0%,0%,0%);fill-opacity:1;" d="M 5.710938 12.9375 C 5.578125 13.066406 5.46875 13.289062 5.46875 13.429688 C 5.46875 13.5625 5.578125 13.789062 5.710938 13.914062 L 5.945312 14.160156 L 37.023438 14.160156 L 37.257812 13.914062 C 37.570312 13.613281 37.570312 13.242188 37.257812 12.9375 L 37.023438 12.695312 L 5.945312 12.695312 Z M 5.710938 12.9375 "/>
<path style=" stroke:none;fill-rule:nonzero;fill:rgb(0%,0%,0%);fill-opacity:1;" d="M 6.023438 16.152344 C 5.148438 16.476562 4.433594 17.207031 4.199219 18.066406 C 4.140625 18.261719 4.101562 20 4.101562 22.140625 C 4.101562 25.632812 4.109375 25.90625 4.296875 26.398438 C 4.53125 27.011719 5.109375 27.625 5.742188 27.949219 L 6.203125 28.171875 L 19.773438 28.171875 L 20.332031 27.898438 C 20.644531 27.742188 21.046875 27.453125 21.230469 27.226562 C 21.867188 26.492188 21.875 26.386719 21.875 22.03125 C 21.875 18.125 21.875 18.117188 21.640625 17.625 C 21.347656 16.992188 20.625 16.347656 19.992188 16.164062 C 19.296875 15.957031 6.601562 15.945312 6.023438 16.152344 Z M 19.679688 17.617188 C 19.863281 17.695312 20.109375 17.910156 20.214844 18.085938 C 20.398438 18.398438 20.410156 18.574219 20.410156 22.109375 C 20.410156 25.664062 20.398438 25.820312 20.214844 26.132812 C 19.8125 26.777344 19.921875 26.765625 12.84375 26.738281 C 5.773438 26.710938 6.179688 26.75 5.761719 26.046875 C 5.578125 25.75 5.566406 25.527344 5.566406 22.117188 C 5.566406 18.078125 5.578125 18.027344 6.257812 17.65625 C 6.570312 17.492188 6.972656 17.480469 12.96875 17.480469 C 18.289062 17.480469 19.394531 17.5 19.679688 17.617188 Z M 19.679688 17.617188 "/>
<path style=" stroke:none;fill-rule:nonzero;fill:rgb(0%,0%,0%);fill-opacity:1;" d="M 13.796875 18.847656 C 13.679688 18.898438 13.546875 19.023438 13.484375 19.132812 C 13.417969 19.257812 13.378906 20.390625 13.378906 22.34375 C 13.378906 25.175781 13.390625 25.382812 13.5625 25.59375 C 13.75 25.828125 13.757812 25.828125 16.21875 25.859375 C 18.859375 25.890625 19.132812 25.851562 19.328125 25.429688 C 19.472656 25.097656 19.472656 19.539062 19.328125 19.210938 C 19.265625 19.070312 19.109375 18.914062 18.976562 18.859375 C 18.691406 18.730469 14.121094 18.71875 13.796875 18.847656 Z M 17.96875 22.3125 L 17.96875 24.414062 L 14.84375 24.414062 L 14.84375 20.214844 L 17.96875 20.214844 Z M 17.96875 22.3125 "/>
<path style=" stroke:none;fill-rule:nonzero;fill:rgb(0%,0%,0%);fill-opacity:1;" d="M 6.835938 21.679688 C 6.648438 21.867188 6.640625 22 6.640625 23.671875 L 6.640625 25.476562 L 6.894531 25.671875 C 7.140625 25.867188 7.273438 25.878906 9.617188 25.878906 C 11.960938 25.878906 12.101562 25.867188 12.34375 25.671875 L 12.597656 25.476562 L 12.597656 23.671875 C 12.597656 22 12.585938 21.867188 12.402344 21.679688 C 12.21875 21.492188 12.078125 21.484375 9.617188 21.484375 C 7.15625 21.484375 7.023438 21.492188 6.835938 21.679688 Z M 11.132812 23.679688 L 11.132812 24.414062 L 8.105469 24.414062 L 8.105469 22.949219 L 11.132812 22.949219 Z M 11.132812 23.679688 "/>
<path style=" stroke:none;fill-rule:nonzero;fill:rgb(0%,0%,0%);fill-opacity:1;" d="M 24.140625 18.914062 C 24.070312 18.945312 23.953125 19.082031 23.875 19.238281 C 23.691406 19.589844 23.835938 20.046875 24.179688 20.203125 C 24.355469 20.28125 26.398438 20.3125 31.40625 20.3125 L 38.390625 20.3125 L 38.625 20.070312 C 38.757812 19.941406 38.867188 19.71875 38.867188 19.578125 C 38.867188 19.445312 38.757812 19.21875 38.625 19.09375 L 38.390625 18.847656 L 31.328125 18.859375 C 27.441406 18.859375 24.210938 18.886719 24.140625 18.914062 Z M 24.140625 18.914062 "/>
<path style=" stroke:none;fill-rule:nonzero;fill:rgb(0%,0%,0%);fill-opacity:1;" d="M 24.015625 21.855469 C 23.691406 22.117188 23.71875 22.617188 24.0625 22.921875 L 24.328125 23.144531 L 33.117188 23.144531 L 33.351562 22.898438 C 33.664062 22.597656 33.671875 22.179688 33.367188 21.894531 C 33.144531 21.679688 33.125 21.679688 28.691406 21.679688 C 24.511719 21.679688 24.226562 21.6875 24.015625 21.855469 Z M 24.015625 21.855469 "/>
<path style=" stroke:none;fill-rule:nonzero;fill:rgb(0%,0%,0%);fill-opacity:1;" d="M 4.296875 30.292969 C 3.914062 30.703125 4.140625 31.359375 4.707031 31.492188 C 4.835938 31.523438 9.394531 31.53125 14.851562 31.523438 C 24.460938 31.492188 24.796875 31.484375 24.992188 31.308594 C 25.253906 31.0625 25.265625 30.539062 25 30.273438 C 24.804688 30.078125 24.679688 30.078125 14.648438 30.078125 L 4.5 30.078125 Z M 4.296875 30.292969 "/>
<path style=" stroke:none;fill-rule:nonzero;fill:rgb(0%,0%,0%);fill-opacity:1;" d="M 4.296875 33.105469 C 3.875 33.523438 4.160156 34.210938 4.804688 34.328125 C 4.980469 34.355469 9.84375 34.375 15.605469 34.355469 L 26.09375 34.328125 L 26.28125 34.09375 C 26.523438 33.796875 26.515625 33.351562 26.269531 33.105469 C 26.074219 32.910156 25.945312 32.910156 15.28125 32.910156 C 4.617188 32.910156 4.492188 32.910156 4.296875 33.105469 Z M 4.296875 33.105469 "/>
<path style=" stroke:none;fill-rule:nonzero;fill:rgb(0%,0%,0%);fill-opacity:1;" d="M 4.53125 35.78125 C 4.0625 35.984375 3.945312 36.5625 4.296875 36.914062 C 4.492188 37.109375 4.617188 37.109375 14.6875 37.109375 L 24.890625 37.109375 L 25.039062 36.894531 C 25.265625 36.582031 25.234375 36.101562 24.992188 35.878906 C 24.796875 35.703125 24.460938 35.695312 14.804688 35.671875 C 6.582031 35.65625 4.785156 35.671875 4.53125 35.78125 Z M 4.53125 35.78125 "/>
<path style=" stroke:none;fill-rule:nonzero;fill:rgb(0%,0%,0%);fill-opacity:1;" d="M 4.523438 38.671875 C 4.070312 38.859375 3.964844 39.484375 4.328125 39.824219 C 4.550781 40.039062 4.550781 40.039062 9.539062 40.039062 C 14.148438 40.039062 14.539062 40.03125 14.726562 39.863281 C 14.84375 39.773438 14.960938 39.578125 15 39.433594 C 15.046875 39.21875 15 39.109375 14.765625 38.867188 L 14.472656 38.574219 L 9.601562 38.585938 C 6.921875 38.585938 4.640625 38.625 4.523438 38.671875 Z M 4.523438 38.671875 "/>
</g>
</svg>
