<?xml version="1.0" encoding="UTF-8"?>
<svg xmlns="http://www.w3.org/2000/svg" xmlns:xlink="http://www.w3.org/1999/xlink" width="50px" height="px" viewBox="0 0 50 50" version="1.1">
<g id="surface1">
<path style=" stroke:none;fill-rule:nonzero;fill:rgb(0%,0%,0%);fill-opacity:1;" d="M 30.304688 4.523438 C 26.816406 8 26.5625 8.28125 26.5625 8.59375 C 26.5625 8.90625 26.816406 9.1875 30.304688 12.664062 C 33.78125 16.152344 34.0625 16.40625 34.375 16.40625 C 34.6875 16.40625 34.96875 16.152344 38.445312 12.664062 C 41.933594 9.1875 42.1875 8.90625 42.1875 8.59375 C 42.1875 8.28125 41.933594 8 38.445312 4.523438 C 34.96875 1.035156 34.6875 0.78125 34.375 0.78125 C 34.0625 0.78125 33.78125 1.035156 30.304688 4.523438 Z M 35.007812 3.320312 L 35.585938 3.90625 L 34.589844 4.914062 C 33.210938 6.308594 33.203125 6.191406 34.992188 7.976562 C 36.777344 9.765625 36.660156 9.757812 38.054688 8.378906 L 39.070312 7.382812 L 39.679688 7.988281 L 40.28125 8.59375 L 37.324219 11.554688 L 34.375 14.5 L 31.425781 11.554688 L 28.46875 8.59375 L 31.398438 5.664062 C 33.007812 4.054688 34.34375 2.734375 34.375 2.734375 C 34.40625 2.734375 34.6875 3 35.007812 3.320312 Z M 37.351562 5.664062 L 37.9375 6.25 L 37.324219 6.867188 L 36.71875 7.46875 L 36.113281 6.867188 L 35.5 6.25 L 36.085938 5.664062 C 36.40625 5.34375 36.6875 5.078125 36.71875 5.078125 C 36.75 5.078125 37.03125 5.34375 37.351562 5.664062 Z M 37.351562 5.664062 "/>
<path style=" stroke:none;fill-rule:nonzero;fill:rgb(0%,0%,0%);fill-opacity:1;" d="M 14.679688 15.460938 C 11.230469 18.898438 10.9375 19.21875 10.9375 19.523438 C 10.9375 19.8125 11.0625 19.980469 11.933594 20.859375 L 12.929688 21.875 L 10.996094 21.875 C 9.082031 21.875 9.070312 21.875 8.835938 22.117188 C 8.703125 22.246094 8.59375 22.429688 8.59375 22.53125 C 8.59375 22.625 9.304688 26.992188 10.175781 32.226562 C 11.601562 40.8125 11.777344 41.765625 11.984375 41.960938 L 12.195312 42.1875 L 25.78125 42.1875 L 25.78125 42.96875 L 18.320312 42.96875 C 11.289062 42.96875 10.851562 42.960938 10.800781 42.792969 C 10.78125 42.703125 9.914062 37.53125 8.875 31.296875 C 7.167969 21.046875 6.972656 19.953125 6.765625 19.746094 C 6.554688 19.53125 6.53125 19.53125 3.664062 19.53125 L 0.78125 19.53125 L 0.78125 21.09375 L 3.164062 21.09375 C 5.351562 21.09375 5.554688 21.101562 5.605469 21.257812 C 5.625 21.359375 6.492188 26.53125 7.53125 32.765625 C 9.238281 43.015625 9.433594 44.109375 9.640625 44.316406 C 9.84375 44.523438 9.929688 44.53125 11.375 44.53125 C 12.570312 44.53125 12.890625 44.5625 12.851562 44.648438 C 12.597656 45.273438 12.480469 45.890625 12.539062 46.40625 C 12.648438 47.480469 13.203125 48.3125 14.179688 48.835938 C 14.746094 49.140625 14.863281 49.171875 15.625 49.171875 C 16.386719 49.171875 16.503906 49.140625 17.070312 48.835938 C 17.753906 48.46875 18.054688 48.15625 18.417969 47.453125 C 18.828125 46.632812 18.828125 45.671875 18.398438 44.648438 C 18.351562 44.5625 19.121094 44.53125 22.0625 44.53125 L 25.78125 44.53125 L 25.78125 46.632812 C 25.78125 48.742188 25.78125 48.742188 26.023438 48.976562 L 26.257812 49.21875 L 48.742188 49.21875 L 48.976562 48.976562 L 49.21875 48.742188 L 49.21875 38.757812 L 48.976562 38.523438 L 48.742188 38.28125 L 43.75 38.28125 L 43.75 29.382812 L 43.507812 29.148438 L 43.273438 28.90625 L 41.0625 28.90625 C 39.140625 28.90625 38.867188 28.886719 38.867188 28.75 C 38.867188 28.671875 39.09375 27.285156 39.355469 25.683594 C 39.628906 24.082031 39.84375 22.675781 39.84375 22.558594 C 39.84375 22.453125 39.734375 22.246094 39.601562 22.117188 L 39.367188 21.875 L 24.570312 21.875 L 25.566406 20.859375 C 26.4375 19.980469 26.5625 19.8125 26.5625 19.523438 C 26.5625 19.21875 26.269531 18.898438 22.820312 15.460938 C 19.34375 11.972656 19.0625 11.71875 18.75 11.71875 C 18.4375 11.71875 18.15625 11.972656 14.679688 15.460938 Z M 21.726562 16.601562 L 24.65625 19.53125 L 22.3125 21.875 L 15.1875 21.875 L 12.84375 19.53125 L 13.445312 18.925781 L 14.054688 18.320312 L 15.070312 19.316406 C 16.464844 20.695312 16.347656 20.703125 18.132812 18.914062 C 19.921875 17.128906 19.914062 17.246094 18.535156 15.851562 L 17.539062 14.84375 L 18.117188 14.257812 C 18.4375 13.9375 18.71875 13.671875 18.75 13.671875 C 18.78125 13.671875 20.117188 14.992188 21.726562 16.601562 Z M 17.039062 16.601562 L 17.625 17.1875 L 17.011719 17.804688 L 16.40625 18.40625 L 15.800781 17.804688 L 15.1875 17.1875 L 15.773438 16.601562 C 16.09375 16.28125 16.375 16.015625 16.40625 16.015625 C 16.4375 16.015625 16.71875 16.28125 17.039062 16.601562 Z M 38.085938 23.601562 C 38.085938 23.691406 38.039062 24.042969 37.976562 24.382812 L 37.871094 25 L 10.566406 25 L 10.460938 24.382812 C 10.398438 24.042969 10.351562 23.691406 10.351562 23.601562 C 10.351562 23.445312 11.335938 23.4375 24.21875 23.4375 C 37.101562 23.4375 38.085938 23.445312 38.085938 23.601562 Z M 37.597656 26.632812 C 37.597656 26.726562 37.3125 28.398438 37.257812 28.679688 L 37.207031 28.90625 L 31.726562 28.90625 L 31.492188 29.148438 L 31.25 29.382812 L 31.25 38.28125 L 26.257812 38.28125 L 26.023438 38.523438 C 25.800781 38.742188 25.78125 38.835938 25.78125 39.695312 L 25.78125 40.625 L 13.183594 40.625 L 13.132812 40.398438 C 13.085938 40.175781 10.839844 26.699219 10.839844 26.609375 C 10.839844 26.582031 16.867188 26.5625 24.21875 26.5625 C 31.582031 26.5625 37.597656 26.59375 37.597656 26.632812 Z M 35.15625 32.179688 C 35.15625 34.511719 35.007812 34.375 37.5 34.375 C 39.992188 34.375 39.84375 34.511719 39.84375 32.179688 L 39.84375 30.46875 L 42.1875 30.46875 L 42.1875 38.28125 L 32.8125 38.28125 L 32.8125 30.46875 L 35.15625 30.46875 Z M 38.28125 31.640625 L 38.28125 32.8125 L 36.71875 32.8125 L 36.71875 30.46875 L 38.28125 30.46875 Z M 29.6875 41.554688 C 29.6875 43.886719 29.539062 43.75 32.03125 43.75 C 34.523438 43.75 34.375 43.886719 34.375 41.554688 L 34.375 39.84375 L 36.71875 39.84375 L 36.71875 47.65625 L 27.34375 47.65625 L 27.34375 39.84375 L 29.6875 39.84375 Z M 32.8125 41.015625 L 32.8125 42.1875 L 31.25 42.1875 L 31.25 39.84375 L 32.8125 39.84375 Z M 40.625 41.554688 C 40.625 43.886719 40.476562 43.75 42.96875 43.75 C 45.460938 43.75 45.3125 43.886719 45.3125 41.554688 L 45.3125 39.84375 L 47.65625 39.84375 L 47.65625 47.65625 L 38.28125 47.65625 L 38.28125 39.84375 L 40.625 39.84375 Z M 43.75 41.015625 L 43.75 42.1875 L 42.1875 42.1875 L 42.1875 39.84375 L 43.75 39.84375 Z M 16.242188 44.667969 C 17.246094 45.085938 17.492188 46.398438 16.710938 47.179688 C 16.074219 47.8125 15.175781 47.8125 14.539062 47.179688 C 13.328125 45.976562 14.667969 44.003906 16.242188 44.667969 Z M 16.242188 44.667969 "/>
</g>
</svg>
