<?xml version="1.0" standalone="no"?>
<!DOCTYPE svg PUBLIC "-//W3C//DTD SVG 20010904//EN"
 "http://www.w3.org/TR/2001/REC-SVG-20010904/DTD/svg10.dtd">
<svg version="1.0" xmlns="http://www.w3.org/2000/svg"
 width="775.000000pt" height="284.000000pt" viewBox="0 0 775.000000 284.000000"
 preserveAspectRatio="xMidYMid meet">

<g transform="translate(0.000000,284.000000) scale(0.100000,-0.100000)"
fill="#000000" stroke="none">
<path d="M5278 2571 c-31 -27 -33 -34 -33 -91 0 -57 2 -64 33 -91 26 -24 41
-29 82 -29 41 0 56 5 82 29 31 27 33 34 33 91 0 57 -2 64 -33 91 -26 24 -41
29 -82 29 -41 0 -56 -5 -82 -29z"/>
<path d="M577 2503 c-5 -7 -114 -417 -243 -908 -89 -337 -100 -370 -135 -399
-24 -20 -41 -26 -80 -26 -27 0 -49 -4 -49 -10 0 -6 67 -10 180 -10 113 0 180
4 180 10 0 6 -28 10 -65 10 -52 0 -69 4 -85 20 -11 11 -20 26 -20 34 0 18 88
368 100 402 l10 24 201 -2 201 -3 48 -190 c27 -104 49 -204 50 -221 0 -45 -26
-64 -88 -64 -29 0 -52 -4 -52 -10 0 -6 92 -10 255 -10 163 0 255 4 255 10 0 6
-11 10 -24 10 -32 0 -69 31 -83 71 -6 19 -62 212 -124 429 -61 217 -140 494
-174 615 l-63 220 -95 3 c-52 1 -98 -1 -100 -5z m93 -451 c51 -205 91 -375 88
-378 -3 -2 -90 -3 -195 -2 l-190 3 62 230 c33 127 78 296 99 378 22 81 40 146
41 145 1 -2 44 -171 95 -376z"/>
<path d="M1613 2383 c-43 -130 -126 -191 -279 -209 -70 -9 -70 -24 0 -24 l55
0 3 -422 c3 -382 5 -427 21 -463 23 -51 52 -82 102 -108 53 -27 193 -29 278
-4 64 20 79 42 20 31 -94 -18 -145 2 -162 63 -7 24 -11 201 -11 471 l0 432 95
0 c57 0 95 4 95 10 0 6 -38 10 -95 10 l-95 0 0 115 c0 72 -4 115 -10 115 -6 0
-13 -8 -17 -17z"/>
<path d="M2249 2373 c-42 -118 -114 -173 -254 -196 -41 -6 -75 -15 -75 -19 0
-5 25 -8 55 -8 l55 0 0 -403 c0 -445 4 -476 60 -541 48 -54 92 -70 195 -70 88
0 205 24 205 43 0 4 -33 6 -74 3 -71 -4 -76 -3 -99 22 -14 14 -27 40 -31 57
-3 18 -6 224 -6 460 l0 429 95 0 c57 0 95 4 95 10 0 6 -38 10 -95 10 l-95 0 0
115 c0 116 -10 144 -31 88z"/>
<path d="M4815 2353 c-39 -101 -133 -164 -267 -179 -73 -9 -75 -24 -4 -24 l55
0 3 -417 c4 -457 6 -473 65 -535 59 -62 211 -82 336 -45 60 18 81 44 26 32
-81 -18 -133 -5 -157 38 -15 29 -17 77 -20 480 l-3 447 96 0 c57 0 95 4 95 10
0 6 -38 10 -95 10 l-95 0 0 115 c0 63 -4 115 -9 115 -4 0 -16 -21 -26 -47z"/>
<path d="M2900 2186 c-151 -33 -238 -126 -287 -308 -22 -82 -24 -338 -4 -418
48 -188 138 -284 300 -318 197 -41 389 46 408 186 5 35 2 44 -23 69 l-28 28
-11 -55 c-24 -114 -45 -152 -106 -189 -45 -28 -132 -28 -175 -2 -89 54 -134
196 -134 422 l0 89 256 0 256 0 -7 88 c-8 109 -21 163 -52 227 -48 98 -144
170 -241 181 -26 3 -58 6 -72 8 -14 2 -50 -2 -80 -8z m109 -17 c60 -21 84
-104 97 -336 l7 -123 -138 0 -138 0 6 143 c10 229 34 288 133 327 1 0 15 -5
33 -11z"/>
<path d="M3953 2179 c-39 -11 -95 -65 -122 -117 l-20 -37 -1 73 0 72 -180 0
c-106 0 -180 -4 -180 -9 0 -6 16 -11 37 -13 26 -2 42 -11 57 -31 20 -27 21
-41 24 -400 5 -513 2 -532 -86 -544 -23 -3 -42 -10 -42 -14 0 -5 108 -9 240
-9 153 0 240 4 240 10 0 6 -9 10 -20 10 -35 0 -69 22 -80 53 -14 41 -14 669 1
739 22 107 71 168 135 168 40 0 60 -16 80 -62 17 -39 19 -81 22 -480 l3 -438
175 0 c109 0 174 4 174 10 0 6 -11 10 -24 10 -35 0 -66 30 -76 75 -5 22 -10
185 -10 363 0 257 -3 337 -16 392 -30 132 -102 191 -230 189 -38 0 -84 -5
-101 -10z"/>
<path d="M5974 2170 c-169 -55 -256 -228 -257 -505 0 -141 19 -243 63 -332 73
-148 237 -224 419 -194 229 37 334 218 326 556 -5 201 -45 316 -141 405 -72
66 -121 84 -244 87 -84 2 -117 -1 -166 -17z m213 -16 c64 -40 83 -128 90 -414
8 -357 -18 -527 -91 -571 -67 -41 -135 -15 -171 64 -39 87 -47 177 -43 477 5
292 14 358 59 421 33 47 102 57 156 23z"/>
<path d="M7141 2179 c-46 -18 -82 -52 -111 -102 l-30 -52 0 73 0 72 -180 0
c-113 0 -180 -4 -180 -10 0 -5 15 -10 34 -10 26 0 40 -7 56 -27 20 -26 21 -32
18 -469 -3 -496 1 -471 -77 -481 -22 -3 -41 -10 -41 -14 0 -5 108 -9 240 -9
153 0 240 4 240 10 0 6 -9 10 -20 10 -33 0 -68 22 -80 50 -8 19 -10 136 -8
391 l3 364 26 56 c34 72 63 99 107 99 48 0 67 -14 88 -62 17 -39 19 -82 22
-480 l3 -438 175 0 c109 0 174 4 174 10 0 6 -9 10 -20 10 -28 0 -68 20 -77 39
-4 9 -10 187 -13 396 -6 407 -8 422 -61 500 -13 19 -45 46 -70 60 -38 21 -60
25 -120 24 -41 0 -85 -5 -98 -10z"/>
<path d="M5120 2160 c0 -5 16 -10 35 -10 25 0 44 -8 60 -25 l25 -24 0 -430 c0
-294 -4 -438 -11 -454 -13 -28 -48 -47 -84 -47 -14 0 -25 -4 -25 -10 0 -6 88
-10 245 -10 157 0 245 4 245 10 0 6 -13 10 -29 10 -17 0 -42 10 -58 24 l-28
24 -3 476 -3 476 -184 0 c-117 0 -185 -4 -185 -10z"/>
<path d="M2380 290 l0 -102 62 4 c77 6 108 35 108 102 0 68 -23 89 -104 94
l-66 4 0 -102z m128 56 c20 -19 19 -93 -1 -113 -8 -9 -33 -16 -54 -17 l-38 -1
-3 64 c-4 87 0 95 45 88 20 -4 43 -13 51 -21z"/>
<path d="M2770 290 l0 -100 60 0 c68 0 82 17 18 22 -40 3 -43 5 -46 36 -3 31
-2 32 32 32 45 0 47 18 4 22 -29 3 -33 6 -33 33 0 28 3 30 43 33 64 5 50 22
-18 22 l-60 0 0 -100z"/>
<path d="M3118 290 c50 -146 52 -145 139 88 3 6 -2 12 -11 12 -9 0 -16 -6 -16
-12 0 -7 -13 -46 -29 -87 -33 -84 -33 -84 -70 32 -13 37 -28 67 -35 67 -9 0
-2 -32 22 -100z"/>
<path d="M3471 290 l1 -100 59 0 c67 0 81 17 17 22 -40 3 -43 5 -46 36 -3 31
-2 32 32 32 48 0 55 18 9 22 -35 3 -38 6 -38 33 0 28 3 30 43 33 64 5 50 22
-18 22 l-60 0 1 -100z"/>
<path d="M3810 290 l0 -100 49 0 c28 0 53 5 56 10 4 6 -10 10 -34 10 l-41 0 0
90 c0 73 -3 90 -15 90 -12 0 -15 -18 -15 -100z"/>
<path d="M4140 362 c-72 -73 -12 -192 85 -168 42 11 65 44 65 97 0 61 -22 89
-77 96 -37 5 -46 2 -73 -25z m101 -11 c34 -27 33 -95 -1 -123 -16 -13 -32 -17
-49 -13 -44 11 -52 24 -49 79 3 42 7 53 28 63 34 17 44 16 71 -6z"/>
<path d="M4511 290 c0 -79 4 -100 15 -100 9 0 14 11 14 35 0 32 3 35 28 35 46
0 72 25 72 70 0 47 -18 60 -84 60 l-46 0 1 -100z m93 64 c9 -8 16 -20 16 -25
0 -17 -41 -50 -58 -47 -17 3 -28 47 -18 74 7 19 41 18 60 -2z"/>
<path d="M4861 290 l1 -100 59 0 c67 0 81 17 17 22 -40 3 -43 5 -46 36 -3 31
-2 32 32 32 48 0 55 18 9 22 -35 3 -38 6 -38 33 0 28 3 30 43 33 64 5 50 22
-18 22 l-60 0 1 -100z"/>
<path d="M5200 290 c0 -82 3 -100 15 -100 10 0 15 11 15 35 0 48 31 48 62 0
13 -19 29 -35 36 -35 17 0 15 7 -13 44 -25 33 -25 33 -5 51 11 10 20 30 20 45
0 39 -29 60 -83 60 l-47 0 0 -100z m77 74 c30 -8 36 -41 12 -65 -27 -27 -53
-21 -57 14 -6 51 3 62 45 51z"/>
</g>
</svg>
